<svg width="53" height="53" viewBox="0 0 53 53" fill="none" xmlns="http://www.w3.org/2000/svg">
<g id="map:art-gallery">
<path id="Vector" d="M22.4837 6.36011C9.0938 6.36011 1.06006 17.1011 1.06006 22.4721C1.06006 27.8431 3.73762 31.8711 9.0938 31.8711C14.45 31.8711 17.1286 33.2131 17.1286 37.2411C17.1286 42.611 21.1449 46.639 26.5011 46.639C43.9084 46.639 51.9411 37.2411 51.9411 27.8431C51.9401 11.7311 38.548 6.36011 22.4837 6.36011ZM19.1362 11.7311C19.5765 11.7314 20.0123 11.8185 20.4189 11.9873C20.8255 12.1562 21.1947 12.4035 21.5056 12.7152C21.8165 13.0269 22.0629 13.3968 22.2308 13.8038C22.3986 14.2108 22.4846 14.6469 22.4837 15.0871C22.4837 16.9421 20.9849 18.4441 19.1362 18.4441C17.2876 18.4441 15.7888 16.941 15.7888 15.0871C15.7879 14.6469 15.8739 14.2108 16.0417 13.8038C16.2095 13.3968 16.4559 13.0269 16.7668 12.7152C17.0777 12.4035 17.447 12.1562 17.8536 11.9873C18.2601 11.8185 18.696 11.7314 19.1362 11.7311ZM29.8465 11.7311C30.2867 11.7314 30.7226 11.8185 31.1291 11.9873C31.5357 12.1562 31.905 12.4035 32.2159 12.7152C32.5268 13.0269 32.7732 13.3968 32.941 13.8038C33.1088 14.2108 33.1948 14.6469 33.194 15.0871C33.1949 15.5274 33.1091 15.9636 32.9413 16.3707C32.7736 16.7778 32.5272 17.1479 32.2163 17.4597C31.9053 17.7715 31.536 18.0189 31.1294 18.1878C30.7227 18.3567 30.2868 18.4438 29.8465 18.4441C29.4062 18.4437 28.9704 18.3565 28.5639 18.1875C28.1574 18.0185 27.7882 17.7711 27.4774 17.4593C27.1666 17.1475 26.9203 16.7775 26.7526 16.3705C26.5849 15.9634 26.4991 15.5273 26.5001 15.0871C26.4992 14.6469 26.5851 14.211 26.7529 13.804C26.9207 13.3971 27.167 13.0272 27.4778 12.7156C27.7885 12.4039 28.1577 12.1565 28.5641 11.9876C28.9706 11.8187 29.4063 11.7315 29.8465 11.7311ZM40.5588 17.1011C40.9992 17.1012 41.4353 17.1882 41.8421 17.3571C42.2488 17.5259 42.6183 17.7733 42.9293 18.0852C43.2403 18.397 43.4868 18.7671 43.6546 19.1742C43.8225 19.5814 43.9084 20.0177 43.9074 20.4581C43.9082 20.8984 43.8222 21.3346 43.6543 21.7417C43.4864 22.1487 43.2399 22.5187 42.9289 22.8304C42.6179 23.1421 42.2485 23.3894 41.8418 23.5582C41.4351 23.727 40.9992 23.8139 40.5588 23.8141C40.1187 23.8137 39.6829 23.7265 39.2765 23.5576C38.8701 23.3887 38.5009 23.1413 38.1901 22.8296C37.8793 22.5179 37.633 22.1481 37.4653 21.7412C37.2975 21.3342 37.2116 20.8983 37.2124 20.4581C37.2114 20.0179 37.2973 19.5818 37.465 19.1747C37.6327 18.7677 37.8789 18.3977 38.1897 18.0859C38.5005 17.7741 38.8698 17.5267 39.2763 17.3577C39.6828 17.1887 40.1186 17.1015 40.5588 17.1011ZM9.76372 19.7871C10.2038 19.7875 10.6394 19.8747 11.0458 20.0435C11.4522 20.2124 11.8213 20.4596 12.1321 20.7712C12.4428 21.0828 12.6892 21.4525 12.857 21.8593C13.0248 22.2661 13.1108 22.702 13.1101 23.142C13.1101 24.997 11.6113 26.499 9.76372 26.499C7.91614 26.499 6.41624 24.996 6.41624 23.142C6.41554 22.7019 6.5016 22.2659 6.66949 21.8591C6.83737 21.4522 7.0838 21.0824 7.39469 20.7708C7.70557 20.4593 8.07481 20.212 8.48131 20.0432C8.8878 19.8744 9.32358 19.7874 9.76372 19.7871ZM26.5001 33.2131C28.7186 33.2131 30.5164 35.0151 30.5164 37.2421C30.5164 39.466 28.7186 41.2691 26.5001 41.2691C24.2815 41.2691 22.4837 39.466 22.4837 37.2421C22.4827 36.7138 22.5859 36.1905 22.7872 35.7021C22.9885 35.2136 23.2842 34.7697 23.6571 34.3955C24.0301 34.0213 24.4732 33.7243 24.961 33.5214C25.4488 33.3186 25.9717 33.2138 26.5001 33.2131Z" fill="black"/>
</g>
</svg>
