<svg width="53" height="53" viewBox="0 0 53 53" fill="none" xmlns="http://www.w3.org/2000/svg">
<path fill-rule="evenodd" clip-rule="evenodd" d="M45.8231 36.9101C45.8204 37.016 45.81 37.1215 45.7922 37.2259C45.8387 37.4656 45.8317 37.7127 45.7716 37.9494C45.7114 38.1861 45.5997 38.4066 45.4444 38.5951C45.2891 38.7835 45.094 38.9353 44.8731 39.0395C44.6522 39.1437 44.4111 39.1978 44.1668 39.1979H13.2502C12.8877 39.1979 12.5287 39.2693 12.1938 39.408C11.8589 39.5468 11.5546 39.7501 11.2983 40.0064C11.0419 40.2627 10.8386 40.5671 10.6999 40.902C10.5611 41.2369 10.4897 41.5958 10.4897 41.9583C10.4897 42.3208 10.5611 42.6798 10.6999 43.0147C10.8386 43.3496 11.0419 43.6539 11.2983 43.9102C11.5546 44.1666 11.8589 44.3699 12.1938 44.5086C12.5287 44.6474 12.8877 44.7188 13.2502 44.7188H44.1668C44.6061 44.7188 45.0274 44.8932 45.338 45.2038C45.6486 45.5145 45.8231 45.9357 45.8231 46.375C45.8231 46.8143 45.6486 47.2355 45.338 47.5461C45.0274 47.8568 44.6061 48.0312 44.1668 48.0312H13.2502C11.6395 48.0312 10.0949 47.3914 8.95596 46.2525C7.81707 45.1136 7.17725 43.569 7.17725 41.9583V11.0417C7.17725 9.43103 7.81707 7.88636 8.95596 6.74747C10.0949 5.60857 11.6395 4.96875 13.2502 4.96875H42.8418C44.4892 4.96875 45.8231 6.30258 45.8231 7.95V36.9101ZM19.8752 13.8021C19.4359 13.8021 19.0146 13.9766 18.704 14.2872C18.3934 14.5978 18.2189 15.0191 18.2189 15.4583C18.2189 15.8976 18.3934 16.3189 18.704 16.6295C19.0146 16.9401 19.4359 17.1146 19.8752 17.1146H33.1252C33.5644 17.1146 33.9857 16.9401 34.2963 16.6295C34.6069 16.3189 34.7814 15.8976 34.7814 15.4583C34.7814 15.0191 34.6069 14.5978 34.2963 14.2872C33.9857 13.9766 33.5644 13.8021 33.1252 13.8021H19.8752Z" fill="black"/>
</svg>
