<svg width="18" height="20" viewBox="0 0 18 20" fill="none" xmlns="http://www.w3.org/2000/svg">
<path d="M10.3712 19.7953C13.5891 19.1515 17.75 16.8385 17.75 10.858C17.75 5.41637 13.7631 1.79206 10.8962 0.126978C10.259 -0.243269 9.51471 0.243195 9.51471 0.978547V2.85858C9.51471 4.34163 8.89088 7.04854 7.15735 8.17471C6.27206 8.74963 5.31471 7.8888 5.20765 6.83977L5.11912 5.97791C5.01618 4.97619 3.995 4.36837 3.19412 4.97927C1.75397 6.07459 0.25 7.99782 0.25 10.8569C0.25 18.1704 5.69456 20 8.41632 20C8.57554 20 8.74162 19.9949 8.91456 19.9846C7.57015 19.8704 5.39706 19.0374 5.39706 16.3428C5.39706 14.2344 6.93603 12.81 8.10544 12.1158C8.42044 11.9307 8.78794 12.1724 8.78794 12.5375V13.1443C8.78794 13.6071 8.96809 14.3321 9.39529 14.8279C9.87912 15.3894 10.5884 14.8011 10.645 14.0627C10.6635 13.8302 10.8982 13.6821 11.1 13.7994C11.7599 14.1851 12.6029 15.0078 12.6029 16.3428C12.6029 18.4491 11.4407 19.4179 10.3712 19.7953Z" fill="#E6E6E6"/>
</svg>
