<svg width="28" height="21" viewBox="0 0 28 21" fill="none" xmlns="http://www.w3.org/2000/svg">
<path fill-rule="evenodd" clip-rule="evenodd" d="M27.3848 0.64312C27.7787 1.05457 28 1.61253 28 2.19431C28 2.7761 27.7787 3.33406 27.3848 3.74551L11.636 20.1907C11.4279 20.408 11.1808 20.5805 10.9089 20.6981C10.6369 20.8158 10.3454 20.8763 10.0511 20.8763C9.75671 20.8763 9.46523 20.8158 9.19328 20.6981C8.92133 20.5805 8.67424 20.408 8.46611 20.1907L0.641455 12.0215C0.440774 11.8191 0.280704 11.577 0.170585 11.3093C0.0604664 11.0416 0.00250367 10.7537 7.93321e-05 10.4624C-0.002345 10.1711 0.0508177 9.88214 0.156465 9.6125C0.262112 9.34286 0.418129 9.09789 0.615411 8.89188C0.812693 8.68588 1.04729 8.52296 1.30551 8.41265C1.56374 8.30233 1.84041 8.24681 2.1194 8.24934C2.39839 8.25188 2.6741 8.3124 2.93045 8.42739C3.1868 8.54238 3.41865 8.70953 3.61247 8.91908L10.0504 15.6417L24.4124 0.64312C24.6075 0.439234 24.8392 0.277496 25.0942 0.167147C25.3492 0.0567973 25.6226 0 25.8986 0C26.1746 0 26.448 0.0567973 26.703 0.167147C26.958 0.277496 27.1897 0.439234 27.3848 0.64312Z" fill="white"/>
</svg>
