<svg width="54" height="54" viewBox="0 0 54 54" fill="none" xmlns="http://www.w3.org/2000/svg">
<g id="emojione-monotone:cooking">
<path id="Vector" d="M49.7862 49.9095L49.9641 49.7329C50.4208 49.2768 50.783 48.735 51.0299 48.1386C51.2767 47.5422 51.4034 46.9029 51.4026 46.2575C51.4018 45.612 51.2735 44.973 51.0251 44.3773C50.7768 43.7815 50.4132 43.2406 49.9553 42.7857L41.5923 34.4703C46.7352 26.1759 45.6977 15.1557 38.4707 7.96927C30.0381 -0.413949 16.3889 -0.395037 7.98248 8.00782C-0.427275 16.4115 -0.411729 30.0176 8.02091 38.4025C15.1899 45.5327 26.1332 46.5797 34.4181 41.5665L42.8184 49.9183C43.745 50.8384 44.9983 51.354 46.3041 51.3524C47.61 51.3507 48.862 50.8319 49.7862 49.9095ZM17.6704 33.2849C10.1244 29.9024 6.34555 21.9812 9.23095 15.5935C12.118 9.20089 20.5775 6.76295 28.1235 10.1429C35.6729 13.5246 39.45 21.4441 36.5646 27.8343C33.6792 34.2236 25.2181 36.664 17.6704 33.2849ZM43.004 46.0648C43.0047 45.2468 43.3301 44.4625 43.9087 43.8843C44.4874 43.3061 45.2718 42.9812 46.0898 42.9811C47.7949 42.9789 49.1797 44.3568 49.1818 46.057C49.184 47.7571 47.8027 49.1385 46.0976 49.1407C45.2796 49.1426 44.4943 48.8197 43.9143 48.2429C43.3342 47.6662 43.0068 46.8828 43.004 46.0648Z" fill="black"/>
<path id="Vector_2" d="M16.6153 19.0531C16.6199 22.712 19.5898 25.6744 23.2487 25.6697C26.9076 25.6651 29.8699 22.6953 29.8653 19.0364C29.8607 15.3775 26.8908 12.4151 23.2319 12.4198C19.5731 12.4244 16.6107 15.3942 16.6153 19.0531Z" fill="black"/>
</g>
</svg>
