<svg width="46" height="17" viewBox="0 0 46 17" fill="none" xmlns="http://www.w3.org/2000/svg">
<path d="M7.44166 1.3321C7.44166 1.4521 7.41166 1.7821 7.35166 2.3221C7.21966 3.6421 7.15366 4.9801 7.15366 6.3361C7.15366 7.5241 7.17166 8.4301 7.20766 9.0541C7.24366 9.6781 7.33366 10.1581 7.47766 10.4941C7.62166 10.8181 7.84366 10.9801 8.14366 10.9801C8.71966 10.9801 9.00766 11.1721 9.00766 11.5561C9.00766 11.8081 8.88166 12.0241 8.62966 12.2041C8.37766 12.3721 8.10166 12.4561 7.80166 12.4561C7.44166 12.4561 7.10566 12.3721 6.79366 12.2041C6.48166 12.0361 6.23566 11.7781 6.05566 11.4301C5.80366 11.8021 5.43766 12.1021 4.95766 12.3301C4.48966 12.5461 4.03366 12.6541 3.58966 12.6541C2.90566 12.6541 2.29966 12.5101 1.77166 12.2221C1.24366 11.9341 0.835664 11.5441 0.547664 11.0521C0.259664 10.5481 0.115664 9.9961 0.115664 9.3961C0.115664 8.8201 0.181664 8.2681 0.313664 7.7401C0.457664 7.2001 0.649664 6.7561 0.889664 6.4081C1.21366 5.9521 1.64566 5.5921 2.18566 5.3281C2.73766 5.0521 3.27766 4.9141 3.80566 4.9141C4.12966 4.9141 4.43566 4.9801 4.72366 5.1121C5.01166 5.2321 5.26366 5.3821 5.47966 5.5621C5.47966 4.7581 5.47366 4.2541 5.46166 4.0501V3.6721C5.46166 2.5561 5.53366 1.7401 5.67766 1.2241C5.80966 0.720097 6.12766 0.468097 6.63166 0.468097C6.90766 0.468097 7.11166 0.528097 7.24366 0.648097C7.37566 0.768097 7.44166 0.996097 7.44166 1.3321ZM1.89766 9.3601C1.89766 9.9121 2.05366 10.3561 2.36566 10.6921C2.68966 11.0281 3.07366 11.1961 3.51766 11.1961C4.15366 11.1961 4.62166 10.9981 4.92166 10.6021C5.23366 10.2061 5.38966 9.6961 5.38966 9.0721L5.37166 7.2901C4.90366 6.7741 4.41766 6.5161 3.91366 6.5161C3.56566 6.5161 3.23566 6.6061 2.92366 6.7861C2.62366 6.9541 2.38366 7.2121 2.20366 7.5601C1.99966 7.9561 1.89766 8.5561 1.89766 9.3601Z" fill="#3BB4C1"/>
<path d="M17.3193 6.8221C17.4153 6.9901 17.4933 7.2361 17.5533 7.5601C17.6133 7.8721 17.6433 8.1541 17.6433 8.4061C17.6433 8.8741 17.5413 9.5401 17.3373 10.4041C16.5093 11.9161 15.2853 12.6721 13.6653 12.6721C13.0653 12.6721 12.4533 12.4741 11.8293 12.0781C11.2053 11.6821 10.7733 11.2261 10.5333 10.7101C10.2093 9.6781 10.0473 9.0241 10.0473 8.7481C10.0473 8.2681 10.1493 7.7581 10.3533 7.2181C10.5693 6.6781 10.8393 6.2101 11.1633 5.8141C11.3673 5.5381 11.7333 5.3041 12.2613 5.1121C12.7893 4.9081 13.2693 4.8061 13.7013 4.8061C14.5413 4.8061 15.2553 4.9681 15.8433 5.2921C16.4313 5.6041 16.9233 6.1141 17.3193 6.8221ZM15.7533 9.7201C15.8133 9.5641 15.8433 9.1621 15.8433 8.5141C15.8433 8.1661 15.7773 7.8241 15.6453 7.4881C15.5253 7.1521 15.3453 6.8641 15.1053 6.6241C15.0813 6.6001 15.0153 6.5641 14.9073 6.5161C14.7993 6.4561 14.6493 6.4021 14.4573 6.3541C14.2773 6.2941 14.0673 6.2641 13.8273 6.2641C13.1553 6.2641 12.6633 6.5341 12.3513 7.0741C12.0393 7.6141 11.8833 8.2261 11.8833 8.9101C11.8833 9.0301 11.9133 9.2581 11.9733 9.5941C12.0453 9.9301 12.1053 10.1401 12.1533 10.2241C12.1893 10.3081 12.2793 10.4281 12.4233 10.5841C12.5793 10.7281 12.7653 10.8601 12.9813 10.9801C13.2093 11.0881 13.4433 11.1421 13.6833 11.1421C14.2233 11.1421 14.6553 11.0161 14.9793 10.7641C15.3033 10.5001 15.5613 10.1521 15.7533 9.7201ZM19.8342 9.3601C19.8342 8.6881 19.8402 8.1781 19.8522 7.8301L19.8702 6.1201C19.8702 5.4241 19.8522 4.6621 19.8162 3.8341C19.8042 3.5821 19.7622 3.2341 19.6902 2.7901C19.5942 2.1181 19.5462 1.6141 19.5462 1.2781C19.5462 0.726097 19.8222 0.450097 20.3742 0.450097C20.7222 0.450097 20.9682 0.546097 21.1122 0.738097C21.2682 0.918097 21.3762 1.2061 21.4362 1.6021C21.5562 2.4301 21.6162 3.4021 21.6162 4.5181C21.6162 4.8541 21.6042 5.3581 21.5802 6.0301C21.8082 5.6701 22.1022 5.3881 22.4622 5.1841C22.8342 4.9801 23.2002 4.8781 23.5602 4.8781C24.6042 4.8781 25.5042 5.3101 26.2602 6.1741C26.4642 6.4741 26.6442 6.8341 26.8002 7.2541C26.9682 7.6621 27.0522 8.0161 27.0522 8.3161C27.0522 8.8441 26.9922 9.3301 26.8722 9.7741C26.7642 10.2181 26.5662 10.6501 26.2782 11.0701C25.9902 11.4901 25.6242 11.8321 25.1802 12.0961C24.7482 12.3601 24.2442 12.4921 23.6682 12.4921C23.1642 12.4921 22.7082 12.3901 22.3002 12.1861C21.9042 11.9821 21.5862 11.7121 21.3462 11.3761C21.2862 11.6761 21.1542 11.9761 20.9502 12.2761C20.7462 12.5641 20.5122 12.7081 20.2482 12.7081C20.0322 12.7081 19.8522 12.6541 19.7082 12.5461C19.5642 12.4261 19.4922 12.2521 19.4922 12.0241C19.4922 11.8561 19.5282 11.6461 19.6002 11.3941C19.6722 11.0461 19.7262 10.7281 19.7622 10.4401C19.8102 10.1401 19.8342 9.7801 19.8342 9.3601ZM23.2182 10.9981C23.8062 10.9981 24.2982 10.7941 24.6942 10.3861C25.0902 9.9661 25.2882 9.4021 25.2882 8.6941C25.2882 8.0461 25.1142 7.4881 24.7662 7.0201C24.6462 6.8641 24.4722 6.7381 24.2442 6.6421C24.0282 6.5461 23.8122 6.4981 23.5962 6.4981C23.0922 6.4981 22.6662 6.6481 22.3182 6.9481C21.9702 7.2361 21.7722 7.6381 21.7242 8.1541C21.6762 8.8501 21.6522 9.4501 21.6522 9.9541C21.7962 10.2301 22.0122 10.4761 22.3002 10.6921C22.6002 10.8961 22.9062 10.9981 23.2182 10.9981ZM29.1138 6.4081C29.1138 5.3281 29.0958 4.4701 29.0598 3.8341C29.0358 3.4741 29.0118 3.2041 28.9878 3.0241C28.9278 2.0881 28.8978 1.5061 28.8978 1.2781C28.8978 0.726097 29.1738 0.450097 29.7258 0.450097C30.0738 0.450097 30.3078 0.540097 30.4278 0.720097C30.5598 0.900097 30.6498 1.1941 30.6978 1.6021C30.8178 2.4301 30.8778 3.4021 30.8778 4.5181C30.8778 5.0221 30.8598 5.5261 30.8238 6.0301C31.0398 5.6941 31.3818 5.4181 31.8498 5.2021C32.3298 4.9861 32.7678 4.8781 33.1638 4.8781C33.7038 4.8781 34.1538 4.9921 34.5138 5.2201C34.8858 5.4361 35.2518 5.7541 35.6118 6.1741C35.8158 6.4741 35.9958 6.8341 36.1518 7.2541C36.3198 7.6621 36.4038 8.0161 36.4038 8.3161C36.4038 8.8321 36.3198 9.3781 36.1518 9.9541C35.9958 10.5181 35.7858 10.9561 35.5218 11.2681C35.1858 11.6761 34.8018 11.9821 34.3698 12.1861C33.9498 12.3901 33.4458 12.4921 32.8578 12.4921C31.9458 12.4921 31.2258 12.1201 30.6978 11.3761C30.6378 11.6761 30.5058 11.9761 30.3018 12.2761C30.0978 12.5641 29.8638 12.7081 29.5998 12.7081C29.3838 12.7081 29.2038 12.6541 29.0598 12.5461C28.9158 12.4261 28.8438 12.2521 28.8438 12.0241C28.8438 11.9401 28.8678 11.7301 28.9158 11.3941C29.0358 10.6741 29.0958 9.9961 29.0958 9.3601L29.1138 6.4081ZM32.5698 10.9981C32.8458 10.9981 33.0918 10.9621 33.3078 10.8901C33.5238 10.8061 33.7638 10.6741 34.0278 10.4941C34.2318 10.3741 34.3818 10.1461 34.4778 9.8101C34.5858 9.4741 34.6398 9.1021 34.6398 8.6941C34.6398 8.0701 34.4658 7.5121 34.1178 7.0201C33.9858 6.8761 33.8118 6.7561 33.5958 6.6601C33.3798 6.5641 33.1638 6.5161 32.9478 6.5161C32.4318 6.5161 31.9818 6.6601 31.5978 6.9481C31.2258 7.2361 31.0158 7.6381 30.9678 8.1541C30.9678 8.3101 30.9618 8.4361 30.9498 8.5321L30.9138 9.9541C31.0578 10.2301 31.2918 10.4761 31.6158 10.6921C31.9398 10.8961 32.2578 10.9981 32.5698 10.9981ZM40.1377 16.2721C39.6817 16.2721 39.2977 16.1941 38.9857 16.0381C38.6857 15.8941 38.4577 15.7141 38.3017 15.4981C38.1577 15.2941 38.0857 15.1141 38.0857 14.9581C38.0857 14.7541 38.1577 14.5921 38.3017 14.4721C38.4457 14.3641 38.6197 14.3101 38.8237 14.3101C38.9437 14.3101 39.0577 14.3461 39.1657 14.4181C39.2737 14.4901 39.3337 14.5321 39.3457 14.5441C39.4297 14.6041 39.5137 14.6521 39.5977 14.6881C39.6817 14.7361 39.7717 14.7601 39.8677 14.7601C40.1317 14.7601 40.3477 14.5861 40.5157 14.2381C40.6837 13.8901 40.8517 13.3261 41.0197 12.5461C40.4797 11.7541 40.0297 10.9621 39.6697 10.1701L39.2557 9.2161C39.1957 9.0721 39.0277 8.7001 38.7517 8.1001C38.4877 7.4881 38.2237 6.9481 37.9597 6.4801C37.7917 6.1441 37.7077 5.9161 37.7077 5.7961C37.7077 5.4961 37.8097 5.2741 38.0137 5.1301C38.2297 4.9861 38.4757 4.9141 38.7517 4.9141C38.9437 4.9141 39.0877 4.9561 39.1837 5.0401C39.2917 5.1121 39.4117 5.2501 39.5437 5.4541C39.8917 6.0301 40.2697 6.8941 40.6777 8.0461C40.9177 8.7061 41.1097 9.2101 41.2537 9.5581C41.3977 9.8941 41.5717 10.2361 41.7757 10.5841C41.9797 10.1161 42.2377 9.3181 42.5497 8.1901C42.7417 7.5421 42.8977 7.0261 43.0177 6.6421C43.1497 6.2461 43.2937 5.8861 43.4497 5.5621C43.5577 5.3461 43.6897 5.1721 43.8457 5.0401C44.0137 4.9081 44.1997 4.8421 44.4037 4.8421C44.6077 4.8421 44.8237 4.9201 45.0517 5.0761C45.2917 5.2201 45.4117 5.3941 45.4117 5.5981C45.4117 5.7181 45.3697 5.8621 45.2857 6.0301C44.8177 7.1101 44.4037 8.1301 44.0437 9.0901C43.6957 10.0381 43.3597 11.0821 43.0357 12.2221C42.8437 12.8581 42.6397 13.4641 42.4237 14.0401C42.2197 14.6161 42.0757 14.9701 41.9917 15.1021C41.7517 15.4381 41.4817 15.7141 41.1817 15.9301C40.8817 16.1581 40.5337 16.2721 40.1377 16.2721Z" fill="#048998"/>
</svg>
