<svg width="53" height="53" viewBox="0 0 53 53" fill="none" xmlns="http://www.w3.org/2000/svg">
<path d="M33.6769 14.354C34.9947 14.354 36.2586 13.8305 37.1904 12.8987C38.1222 11.9669 38.6457 10.703 38.6457 9.38525C38.6457 8.06746 38.1222 6.80364 37.1904 5.87182C36.2586 4.94 34.9947 4.4165 33.6769 4.4165C32.3591 4.4165 31.0953 4.94 30.1635 5.87182C29.2317 6.80364 28.7082 8.06746 28.7082 9.38525C28.7082 10.703 29.2317 11.9669 30.1635 12.8987C31.0953 13.8305 32.3591 14.354 33.6769 14.354ZM23.6953 19.082C22.3184 19.4243 21.3787 19.9389 20.6202 20.5771C19.4829 21.5355 18.5642 22.9179 17.3231 25.0909C17.0325 25.5994 16.5517 25.9717 15.9866 26.1257C15.4215 26.2798 14.8184 26.2031 14.3099 25.9124C13.8013 25.6218 13.4291 25.141 13.275 24.5759C13.121 24.0108 13.1977 23.4077 13.4884 22.8991C14.7239 20.7383 15.9727 18.7166 17.7758 17.1994C19.6573 15.6139 21.9606 14.7173 25.0666 14.3717C26.3651 14.2281 27.7939 14.2568 29.1333 14.8542C30.5389 15.4825 31.5658 16.6076 32.2658 18.1115C33.2088 20.1354 33.9099 21.3401 34.4708 22.039C34.7414 22.3736 34.9302 22.5293 35.0373 22.5988C35.1223 22.654 35.1587 22.6584 35.172 22.6607C35.268 22.6717 35.5805 22.6606 36.4948 22.2554C36.8934 22.0788 37.3284 21.8668 37.8606 21.6073L37.9876 21.5454C38.6385 21.2243 39.2952 20.9151 39.9574 20.6179C40.4921 20.3832 41.0979 20.3698 41.6424 20.5806C42.187 20.7914 42.6258 21.2093 42.863 21.7429C43.1002 22.2764 43.1165 22.8822 42.9082 23.4277C42.7 23.9732 42.2841 24.414 41.7517 24.6537C41.138 24.929 40.5295 25.2158 39.9265 25.5138L39.7819 25.5845C39.2729 25.8329 38.7605 26.0836 38.2802 26.2956C37.2865 26.735 36.0167 27.212 34.6398 27.0453C33.1867 26.8686 32.0671 26.0482 31.1451 24.9474L28.1274 30.7696L32.3011 36.1999C32.55 36.5241 32.704 36.9109 32.7461 37.3174L33.6648 46.1463C33.6998 46.4372 33.6766 46.7321 33.5964 47.0139C33.5163 47.2957 33.3809 47.5588 33.1982 47.7878C33.0154 48.0168 32.7889 48.2071 32.5318 48.3476C32.2747 48.4882 31.9923 48.5762 31.7009 48.6066C31.4095 48.6369 31.1149 48.6089 30.8344 48.5243C30.5539 48.4397 30.2931 48.3001 30.0671 48.1136C29.841 47.9272 29.6544 47.6977 29.518 47.4384C29.3815 47.1791 29.2981 46.8953 29.2724 46.6034L28.4178 38.3961L25.8826 35.0969L25.8605 35.1377L25.7678 34.9478L21.0839 28.8528C20.8537 28.5532 20.7041 28.1996 20.6496 27.8257C20.5951 27.4518 20.6374 27.0702 20.7725 26.7174L23.6953 19.082Z" fill="black"/>
<path d="M20.3522 32.0283L18.7269 36.4008L12.3227 35.8929C12.0315 35.8659 11.7379 35.8969 11.4588 35.9843C11.1797 36.0716 10.9208 36.2135 10.697 36.4018C10.4732 36.59 10.2891 36.8208 10.1552 37.0808C10.0213 37.3407 9.9404 37.6247 9.91715 37.9162C9.8939 38.2077 9.92877 38.5009 10.0197 38.7788C10.1107 39.0567 10.256 39.3138 10.4471 39.5351C10.6382 39.7564 10.8714 39.9376 11.1331 40.0681C11.3948 40.1986 11.6798 40.2758 11.9716 40.2952L20.0408 40.9356C20.5197 40.9737 20.998 40.8546 21.4031 40.5964C21.8082 40.3382 22.118 39.9549 22.2856 39.5046L23.5278 36.1612L20.3522 32.0283Z" fill="black"/>
</svg>
