<svg width="32" height="32" viewBox="0 0 32 32" fill="none" xmlns="http://www.w3.org/2000/svg">
<rect width="32" height="32" fill="none"/>
<g id="&#235;&#169;&#148;&#236;&#157;&#184;&#237;&#142;&#152;&#236;&#157;&#180;&#236;&#167;&#128;_&#236;&#187;&#180;&#237;&#143;&#172;&#235;&#132;&#140;&#237;&#138;&#184;">
<path d="M-318 -425C-318 -426.105 -317.105 -427 -316 -427H3644C3645.1 -427 3646 -426.105 3646 -425V1310C3646 1311.1 3645.1 1312 3644 1312H-316C-317.105 1312 -318 1311.1 -318 1310V-425Z" fill="#444444"/>
<path d="M-316 -426H3644V-428H-316V-426ZM3645 -425V1310H3647V-425H3645ZM3644 1311H-316V1313H3644V1311ZM-317 1310V-425H-319V1310H-317ZM-316 1311C-316.552 1311 -317 1310.55 -317 1310H-319C-319 1311.66 -317.657 1313 -316 1313V1311ZM3645 1310C3645 1310.55 3644.55 1311 3644 1311V1313C3645.66 1313 3647 1311.66 3647 1310H3645ZM3644 -426C3644.55 -426 3645 -425.552 3645 -425H3647C3647 -426.657 3645.66 -428 3644 -428V-426ZM-316 -428C-317.657 -428 -319 -426.657 -319 -425H-317C-317 -425.552 -316.552 -426 -316 -426V-428Z" fill="white" fill-opacity="0.1"/>
<g id="&#236;&#131;&#129;&#235;&#139;&#168; &#235;&#176;&#148;" filter="url(#filter0_d_6_2)">
<rect width="360" height="64" transform="translate(-218 -16)" fill="#f6f5f5"/>
<g id="Gem">
<path id="Vector" d="M5.3335 10.6667L16.0002 4L26.6668 10.6667V21.3333L16.0002 28L5.3335 21.3333V10.6667Z" fill="#58B9FF"/>
<path id="Vector_2" d="M16.0002 8V4L5.3335 10.6667V21.3333L16.0002 28V24L9.3335 19.3333V12.6667L16.0002 8Z" fill="#94D2FF"/>
<path id="Vector_3" d="M16 8V4L26.6667 10.6667V21.3333L16 28V24L22.6667 19.3333V12.6667L16 8Z" fill="#228AD6"/>
</g>
</g>
</g>
<defs>
<filter id="filter0_d_6_2" x="-220" y="-17" width="364" height="68" filterUnits="userSpaceOnUse" color-interpolation-filters="sRGB">
<feFlood flood-opacity="0" result="BackgroundImageFix"/>
<feColorMatrix in="SourceAlpha" type="matrix" values="0 0 0 0 0 0 0 0 0 0 0 0 0 0 0 0 0 0 127 0" result="hardAlpha"/>
<feOffset dy="1"/>
<feGaussianBlur stdDeviation="1"/>
<feComposite in2="hardAlpha" operator="out"/>
<feColorMatrix type="matrix" values="0 0 0 0 0 0 0 0 0 0 0 0 0 0 0 0 0 0 0.05 0"/>
<feBlend mode="normal" in2="BackgroundImageFix" result="effect1_dropShadow_6_2"/>
<feBlend mode="normal" in="SourceGraphic" in2="effect1_dropShadow_6_2" result="shape"/>
</filter>
</defs>
</svg>
