<svg width="46" height="17" viewBox="0 0 46 17" fill="none" xmlns="http://www.w3.org/2000/svg">
<path d="M2.4655 1.588C2.4655 1.9 2.4595 2.266 2.4475 2.686C2.4355 3.094 2.4235 3.406 2.4115 3.622C2.3755 4.234 2.3575 4.846 2.3575 5.458C2.3575 5.914 2.3755 6.388 2.4115 6.88C2.7835 6.34 3.1855 5.944 3.6175 5.692C4.0495 5.44 4.5715 5.314 5.1835 5.314C5.6275 5.314 6.0415 5.512 6.4255 5.908C6.8095 6.304 7.0555 6.766 7.1635 7.294C7.1995 7.762 7.2175 8.332 7.2175 9.004C7.2175 9.436 7.2415 10 7.2895 10.696C7.3135 10.96 7.3795 11.206 7.4875 11.434C7.6075 11.662 7.7755 11.776 7.9915 11.776C8.0995 11.776 8.1835 11.77 8.2435 11.758C8.3155 11.746 8.3815 11.74 8.4415 11.74C8.6095 11.74 8.7235 11.782 8.7835 11.866C8.8555 11.95 8.8915 12.07 8.8915 12.226C8.8915 12.514 8.7475 12.73 8.4595 12.874C8.1715 13.018 7.9075 13.09 7.6675 13.09C6.8035 13.09 6.2095 12.73 5.8855 12.01C5.7055 11.602 5.5915 11.074 5.5435 10.426C5.4955 9.766 5.4715 8.998 5.4715 8.122C5.4715 7.258 5.1775 6.826 4.5895 6.826C4.2655 6.826 3.9355 7 3.5995 7.348C3.2755 7.684 3.0055 8.134 2.7895 8.698C2.5735 9.25 2.4655 9.826 2.4655 10.426L2.4835 12.298C2.4835 12.562 2.3815 12.76 2.1775 12.892C1.9735 13.012 1.7815 13.072 1.6015 13.072C1.3375 13.072 1.0975 12.994 0.881496 12.838C0.665496 12.67 0.557496 12.484 0.557496 12.28C0.641496 11.38 0.683496 9.874 0.683496 7.762C0.683496 7.378 0.653496 5.956 0.593496 3.496L0.539496 1.84C0.539496 1.576 0.659496 1.348 0.899496 1.156C1.1395 0.952 1.4095 0.85 1.7095 0.85C1.9735 0.85 2.1655 0.91 2.2855 1.03C2.4055 1.15 2.4655 1.336 2.4655 1.588Z" fill="#3BB4C1"/>
<path d="M17.101 7.222C17.197 7.39 17.275 7.636 17.335 7.96C17.395 8.272 17.425 8.554 17.425 8.806C17.425 9.274 17.323 9.94 17.119 10.804C16.291 12.316 15.067 13.072 13.447 13.072C12.847 13.072 12.235 12.874 11.611 12.478C10.987 12.082 10.555 11.626 10.315 11.11C9.99104 10.078 9.82904 9.424 9.82904 9.148C9.82904 8.668 9.93104 8.158 10.135 7.618C10.351 7.078 10.621 6.61 10.945 6.214C11.149 5.938 11.515 5.704 12.043 5.512C12.571 5.308 13.051 5.206 13.483 5.206C14.323 5.206 15.037 5.368 15.625 5.692C16.213 6.004 16.705 6.514 17.101 7.222ZM15.535 10.12C15.595 9.964 15.625 9.562 15.625 8.914C15.625 8.566 15.559 8.224 15.427 7.888C15.307 7.552 15.127 7.264 14.887 7.024C14.863 7 14.797 6.964 14.689 6.916C14.581 6.856 14.431 6.802 14.239 6.754C14.059 6.694 13.849 6.664 13.609 6.664C12.937 6.664 12.445 6.934 12.133 7.474C11.821 8.014 11.665 8.626 11.665 9.31C11.665 9.43 11.695 9.658 11.755 9.994C11.827 10.33 11.887 10.54 11.935 10.624C11.971 10.708 12.061 10.828 12.205 10.984C12.361 11.128 12.547 11.26 12.763 11.38C12.991 11.488 13.225 11.542 13.465 11.542C14.005 11.542 14.437 11.416 14.761 11.164C15.085 10.9 15.343 10.552 15.535 10.12ZM19.616 9.76C19.616 9.088 19.622 8.578 19.634 8.23L19.652 6.52C19.652 5.824 19.634 5.062 19.598 4.234C19.586 3.982 19.544 3.634 19.472 3.19C19.376 2.518 19.328 2.014 19.328 1.678C19.328 1.126 19.604 0.85 20.156 0.85C20.504 0.85 20.75 0.946 20.894 1.138C21.05 1.318 21.158 1.606 21.218 2.002C21.338 2.83 21.398 3.802 21.398 4.918C21.398 5.254 21.386 5.758 21.362 6.43C21.59 6.07 21.884 5.788 22.244 5.584C22.616 5.38 22.982 5.278 23.342 5.278C24.386 5.278 25.286 5.71 26.042 6.574C26.246 6.874 26.426 7.234 26.582 7.654C26.75 8.062 26.834 8.416 26.834 8.716C26.834 9.244 26.774 9.73 26.654 10.174C26.546 10.618 26.348 11.05 26.06 11.47C25.772 11.89 25.406 12.232 24.962 12.496C24.53 12.76 24.026 12.892 23.45 12.892C22.946 12.892 22.49 12.79 22.082 12.586C21.686 12.382 21.368 12.112 21.128 11.776C21.068 12.076 20.936 12.376 20.732 12.676C20.528 12.964 20.294 13.108 20.03 13.108C19.814 13.108 19.634 13.054 19.49 12.946C19.346 12.826 19.274 12.652 19.274 12.424C19.274 12.256 19.31 12.046 19.382 11.794C19.454 11.446 19.508 11.128 19.544 10.84C19.592 10.54 19.616 10.18 19.616 9.76ZM23 11.398C23.588 11.398 24.08 11.194 24.476 10.786C24.872 10.366 25.07 9.802 25.07 9.094C25.07 8.446 24.896 7.888 24.548 7.42C24.428 7.264 24.254 7.138 24.026 7.042C23.81 6.946 23.594 6.898 23.378 6.898C22.874 6.898 22.448 7.048 22.1 7.348C21.752 7.636 21.554 8.038 21.506 8.554C21.458 9.25 21.434 9.85 21.434 10.354C21.578 10.63 21.794 10.876 22.082 11.092C22.382 11.296 22.688 11.398 23 11.398ZM28.8955 6.808C28.8955 5.728 28.8775 4.87 28.8415 4.234C28.8175 3.874 28.7935 3.604 28.7695 3.424C28.7095 2.488 28.6795 1.906 28.6795 1.678C28.6795 1.126 28.9555 0.85 29.5075 0.85C29.8555 0.85 30.0895 0.94 30.2095 1.12C30.3415 1.3 30.4315 1.594 30.4795 2.002C30.5995 2.83 30.6595 3.802 30.6595 4.918C30.6595 5.422 30.6415 5.926 30.6055 6.43C30.8215 6.094 31.1635 5.818 31.6315 5.602C32.1115 5.386 32.5495 5.278 32.9455 5.278C33.4855 5.278 33.9355 5.392 34.2955 5.62C34.6675 5.836 35.0335 6.154 35.3935 6.574C35.5975 6.874 35.7775 7.234 35.9335 7.654C36.1015 8.062 36.1855 8.416 36.1855 8.716C36.1855 9.232 36.1015 9.778 35.9335 10.354C35.7775 10.918 35.5675 11.356 35.3035 11.668C34.9675 12.076 34.5835 12.382 34.1515 12.586C33.7315 12.79 33.2275 12.892 32.6395 12.892C31.7275 12.892 31.0075 12.52 30.4795 11.776C30.4195 12.076 30.2875 12.376 30.0835 12.676C29.8795 12.964 29.6455 13.108 29.3815 13.108C29.1655 13.108 28.9855 13.054 28.8415 12.946C28.6975 12.826 28.6255 12.652 28.6255 12.424C28.6255 12.34 28.6495 12.13 28.6975 11.794C28.8175 11.074 28.8775 10.396 28.8775 9.76L28.8955 6.808ZM32.3515 11.398C32.6275 11.398 32.8735 11.362 33.0895 11.29C33.3055 11.206 33.5455 11.074 33.8095 10.894C34.0135 10.774 34.1635 10.546 34.2595 10.21C34.3675 9.874 34.4215 9.502 34.4215 9.094C34.4215 8.47 34.2475 7.912 33.8995 7.42C33.7675 7.276 33.5935 7.156 33.3775 7.06C33.1615 6.964 32.9455 6.916 32.7295 6.916C32.2135 6.916 31.7635 7.06 31.3795 7.348C31.0075 7.636 30.7975 8.038 30.7495 8.554C30.7495 8.71 30.7435 8.836 30.7315 8.932L30.6955 10.354C30.8395 10.63 31.0735 10.876 31.3975 11.092C31.7215 11.296 32.0395 11.398 32.3515 11.398ZM39.9194 16.672C39.4634 16.672 39.0794 16.594 38.7674 16.438C38.4674 16.294 38.2394 16.114 38.0834 15.898C37.9394 15.694 37.8674 15.514 37.8674 15.358C37.8674 15.154 37.9394 14.992 38.0834 14.872C38.2274 14.764 38.4014 14.71 38.6054 14.71C38.7254 14.71 38.8394 14.746 38.9474 14.818C39.0554 14.89 39.1154 14.932 39.1274 14.944C39.2114 15.004 39.2954 15.052 39.3794 15.088C39.4634 15.136 39.5534 15.16 39.6494 15.16C39.9134 15.16 40.1294 14.986 40.2974 14.638C40.4654 14.29 40.6334 13.726 40.8014 12.946C40.2614 12.154 39.8114 11.362 39.4514 10.57L39.0374 9.616C38.9774 9.472 38.8094 9.1 38.5334 8.5C38.2694 7.888 38.0054 7.348 37.7414 6.88C37.5734 6.544 37.4894 6.316 37.4894 6.196C37.4894 5.896 37.5914 5.674 37.7954 5.53C38.0114 5.386 38.2574 5.314 38.5334 5.314C38.7254 5.314 38.8694 5.356 38.9654 5.44C39.0734 5.512 39.1934 5.65 39.3254 5.854C39.6734 6.43 40.0514 7.294 40.4594 8.446C40.6994 9.106 40.8914 9.61 41.0354 9.958C41.1794 10.294 41.3534 10.636 41.5574 10.984C41.7614 10.516 42.0194 9.718 42.3314 8.59C42.5234 7.942 42.6794 7.426 42.7994 7.042C42.9314 6.646 43.0754 6.286 43.2314 5.962C43.3394 5.746 43.4714 5.572 43.6274 5.44C43.7954 5.308 43.9814 5.242 44.1854 5.242C44.3894 5.242 44.6054 5.32 44.8334 5.476C45.0734 5.62 45.1934 5.794 45.1934 5.998C45.1934 6.118 45.1514 6.262 45.0674 6.43C44.5994 7.51 44.1854 8.53 43.8254 9.49C43.4774 10.438 43.1414 11.482 42.8174 12.622C42.6254 13.258 42.4214 13.864 42.2054 14.44C42.0014 15.016 41.8574 15.37 41.7734 15.502C41.5334 15.838 41.2634 16.114 40.9634 16.33C40.6634 16.558 40.3154 16.672 39.9194 16.672Z" fill="#048998"/>
</svg>
