<svg width="110" height="39" viewBox="0 0 110 39" fill="none" xmlns="http://www.w3.org/2000/svg">
<rect x="0.25" y="0.25" width="35.8333" height="37.2" rx="1.75" stroke="#048998" stroke-width="0.5"/>
<path d="M9.05542 5.97204C9.05542 5.97204 6.72782 6.23423 5.50914 5.08524C4.29046 3.93539 4.56826 1.73937 4.56826 1.73937C4.56826 1.73937 6.89586 1.47718 8.1153 2.62617C9.33398 3.77602 9.05542 5.97204 9.05542 5.97204Z" stroke="#3BB4C1" stroke-linecap="round" stroke-linejoin="round"/>
<path d="M14.3815 11.9955C14.5823 11.9955 14.7748 11.9052 14.9168 11.7445C15.0587 11.5838 15.1385 11.3659 15.1385 11.1386V9.42501C15.1385 9.19777 15.0587 8.97983 14.9168 8.81915C14.7748 8.65846 14.5823 8.56819 14.3815 8.56819H3.78429C3.58353 8.56819 3.391 8.65846 3.24905 8.81915C3.10709 8.97983 3.02734 9.19777 3.02734 9.42501V11.1386C3.02734 11.3659 3.10709 11.5838 3.24905 11.7445C3.391 11.9052 3.58353 11.9955 3.78429 11.9955M14.3815 11.9955H3.78429M14.3815 11.9955L12.8676 18.85H5.29818L3.78429 11.9955M9.11015 5.97204C9.11015 5.97204 11.4378 6.23423 12.6564 5.08524C13.8751 3.93539 13.5973 1.73937 13.5973 1.73937C13.5973 1.73937 11.2697 1.47718 10.051 2.62617C8.83235 3.77602 9.11015 5.97204 9.11015 5.97204Z" stroke="#048998" stroke-linecap="round" stroke-linejoin="round"/>
<path fill-rule="evenodd" clip-rule="evenodd" d="M13.6359 20.7585C14.2257 20.7585 14.7135 21.1716 15.0706 21.6056C15.4424 22.0558 15.7833 22.6611 16.0863 23.3282C16.6946 24.6664 17.2241 26.4147 17.5742 28.1421C17.9221 29.8562 18.1145 31.6464 17.9916 33.0541C17.8679 34.4674 17.2766 35.9864 15.9548 35.9864C14.8139 35.9864 13.9049 35.263 13.1613 34.5292L12.89 34.2542L12.5097 33.8592L12.1665 33.509C11.3789 32.7238 10.6793 32.1794 9.7711 32.1794C8.86286 32.1794 8.16332 32.7238 7.37567 33.509L7.03247 33.8592L6.65217 34.2542L6.38163 34.5292C5.63649 35.263 4.72748 35.9864 3.58735 35.9864C2.2648 35.9864 1.67348 34.4674 1.55057 33.0541C1.42845 31.6455 1.62014 29.8562 1.96798 28.1421C2.31813 26.4147 2.84762 24.6664 3.45594 23.3273C3.75895 22.6611 4.09983 22.0558 4.47162 21.6046C4.82874 21.1716 5.31648 20.7585 5.90625 20.7585C6.30433 20.7585 6.69314 20.8756 7.07576 21.0155L7.53335 21.1878C7.60962 21.217 7.68563 21.2446 7.76138 21.2706C8.43 21.5066 9.11407 21.7103 9.7711 21.7103C10.4281 21.7103 11.1122 21.5066 11.7808 21.2706L12.4649 21.0165C12.8498 20.8766 13.2417 20.7585 13.6359 20.7585ZM13.6359 22.662C13.3399 22.662 13.0307 22.7724 12.7308 22.8933L12.3768 23.037L12.2059 23.1017C11.5219 23.3416 10.66 23.6138 9.7711 23.6138C8.88218 23.6138 8.02032 23.3416 7.33625 23.1017L7.16619 23.037L6.8114 22.8933C6.51149 22.7715 6.2023 22.662 5.90625 22.662C5.58315 22.7363 5.29329 23.2188 5.07454 23.6661L4.95241 23.9278L4.80555 24.2571C4.27838 25.4164 3.79296 26.9981 3.46831 28.6037C3.16299 30.1037 3.01458 31.5408 3.071 32.6105L3.0911 32.8894L3.10656 33.0569L3.12975 33.2549C3.18308 33.6365 3.29826 34.0829 3.58735 34.0829C4.215 34.0829 4.73907 33.6984 5.39068 33.0607L5.70219 32.7485L6.28965 32.1432L6.55555 31.8768C7.37799 31.0744 8.40681 30.2759 9.7711 30.2759C11.1354 30.2759 12.1642 31.0754 12.9866 31.8768L13.2533 32.1432L13.8408 32.7485L14.1515 33.0607C14.8031 33.6984 15.3264 34.0829 15.9548 34.0829C16.2177 34.0829 16.3367 33.7146 16.3962 33.3605L16.4256 33.153L16.4542 32.8513C16.5493 31.7606 16.4024 30.2198 16.0747 28.6037C15.7763 27.1323 15.3434 25.68 14.8673 24.555L14.5898 23.9269L14.4677 23.6671C14.2489 23.2188 13.959 22.7363 13.6359 22.662ZM7.06571 24.5655C7.57822 24.5655 8.06974 24.8162 8.43214 25.2624C8.79454 25.7086 8.99813 26.3138 8.99813 26.9448C8.99813 27.5759 8.79454 28.1811 8.43214 28.6273C8.06974 29.0735 7.57822 29.3242 7.06571 29.3242C6.5532 29.3242 6.06168 29.0735 5.69928 28.6273C5.33688 28.1811 5.13329 27.5759 5.13329 26.9448C5.13329 26.3138 5.33688 25.7086 5.69928 25.2624C6.06168 24.8162 6.5532 24.5655 7.06571 24.5655ZM12.4765 24.5655C12.6658 24.5655 12.8485 24.6511 12.99 24.806C13.1315 24.9609 13.2219 25.1744 13.244 25.4059L13.2495 25.5172V25.9931H13.6359C13.833 25.9934 14.0225 26.0863 14.1657 26.2528C14.309 26.4193 14.3952 26.6469 14.4067 26.8891C14.4183 27.1312 14.3543 27.3697 14.2278 27.5557C14.1014 27.7417 13.922 27.8613 13.7264 27.8899L13.6359 27.8966H13.2495V28.3725C13.2492 28.615 13.1738 28.8484 13.0386 29.0247C12.9033 29.2011 12.7185 29.3073 12.5218 29.3215C12.3251 29.3357 12.1315 29.2569 11.9804 29.1012C11.8293 28.9455 11.7322 28.7247 11.7089 28.4838L11.7035 28.3725V27.8966H11.317C11.12 27.8963 10.9305 27.8034 10.7873 27.6369C10.644 27.4704 10.5578 27.2428 10.5463 27.0006C10.5347 26.7585 10.5987 26.52 10.7251 26.334C10.8516 26.148 11.031 26.0284 11.2266 25.9998L11.317 25.9931H11.7035V25.5172C11.7035 25.2648 11.785 25.0227 11.9299 24.8443C12.0749 24.6658 12.2715 24.5655 12.4765 24.5655ZM7.06571 26.469C6.96321 26.469 6.8649 26.5191 6.79242 26.6084C6.71994 26.6976 6.67922 26.8186 6.67922 26.9448C6.67922 27.0711 6.71994 27.1921 6.79242 27.2813C6.8649 27.3706 6.96321 27.4207 7.06571 27.4207C7.16821 27.4207 7.26651 27.3706 7.33899 27.2813C7.41147 27.1921 7.45219 27.0711 7.45219 26.9448C7.45219 26.8186 7.41147 26.6976 7.33899 26.6084C7.26651 26.5191 7.16821 26.469 7.06571 26.469Z" fill="#048998"/>
<path d="M29.348 1.71362H31.1647V15.4227H29.348V9.25362H22.0813V15.4227H20.2647V8.56817V1.71362H22.0813V7.88271H29.348V1.71362ZM17.5397 7.88271V3.76999H19.3563V13.3663H17.5397V9.25362H16.6313V7.88271H17.5397ZM34.798 9.25362H33.8897V13.3663H32.073V3.76999H33.8897V7.88271H34.798V9.25362Z" fill="#048998"/>
<path d="M29.348 1.71362H31.1647V15.4227H29.348V9.25362H22.0813V15.4227H20.2647V8.56817V1.71362H22.0813V7.88271H29.348V1.71362ZM17.5397 7.88271V3.76999H19.3563V13.3663H17.5397V9.25362H16.6313V7.88271H17.5397ZM34.798 9.25362H33.8897V13.3663H32.073V3.76999H33.8897V7.88271H34.798V9.25362Z" stroke="#048998"/>
<path d="M23.1388 16.9871H31.006C31.5745 16.9871 32.1447 17.0925 32.5428 17.5605C32.9348 18.0228 33.009 18.663 33.009 19.2597V30.671C33.009 31.1961 32.9476 31.7125 32.7107 32.1303C32.574 32.3713 32.3826 32.566 32.1567 32.6941V33.5722C32.1567 34.2163 32.0646 34.8632 31.6529 35.3148C31.2455 35.7616 30.6812 35.8448 30.1553 35.8448H21.0761C20.7371 35.8448 20.4119 35.692 20.1721 35.4199C19.9323 35.1479 19.7976 34.7789 19.7976 34.3942V20.63C19.7951 20.1484 19.7925 19.5469 19.9084 18.9986C20.0508 18.3293 20.3789 17.6804 21.077 17.2772C21.3651 17.1108 21.6685 17.0451 21.9924 17.0161C22.3035 16.9871 22.6828 16.9871 23.1388 16.9871ZM21.0761 34.3942H30.1553C30.6216 34.3942 30.7375 34.3014 30.7639 34.2724C30.7852 34.2491 30.8781 34.1225 30.8781 33.5722V32.9436H22.3547C22.0156 32.9436 21.6904 33.0964 21.4506 33.3685C21.2108 33.6405 21.0761 34.0095 21.0761 34.3942Z" fill="#048998"/>
<path d="M40.4655 5.588C40.4655 5.9 40.4595 6.266 40.4475 6.686C40.4355 7.094 40.4235 7.406 40.4115 7.622C40.3755 8.234 40.3575 8.846 40.3575 9.458C40.3575 9.914 40.3755 10.388 40.4115 10.88C40.7835 10.34 41.1855 9.944 41.6175 9.692C42.0495 9.44 42.5715 9.314 43.1835 9.314C43.6275 9.314 44.0415 9.512 44.4255 9.908C44.8095 10.304 45.0555 10.766 45.1635 11.294C45.1995 11.762 45.2175 12.332 45.2175 13.004C45.2175 13.436 45.2415 14 45.2895 14.696C45.3135 14.96 45.3795 15.206 45.4875 15.434C45.6075 15.662 45.7755 15.776 45.9915 15.776C46.0995 15.776 46.1835 15.77 46.2435 15.758C46.3155 15.746 46.3815 15.74 46.4415 15.74C46.6095 15.74 46.7235 15.782 46.7835 15.866C46.8555 15.95 46.8915 16.07 46.8915 16.226C46.8915 16.514 46.7475 16.73 46.4595 16.874C46.1715 17.018 45.9075 17.09 45.6675 17.09C44.8035 17.09 44.2095 16.73 43.8855 16.01C43.7055 15.602 43.5915 15.074 43.5435 14.426C43.4955 13.766 43.4715 12.998 43.4715 12.122C43.4715 11.258 43.1775 10.826 42.5895 10.826C42.2655 10.826 41.9355 11 41.5995 11.348C41.2755 11.684 41.0055 12.134 40.7895 12.698C40.5735 13.25 40.4655 13.826 40.4655 14.426L40.4835 16.298C40.4835 16.562 40.3815 16.76 40.1775 16.892C39.9735 17.012 39.7815 17.072 39.6015 17.072C39.3375 17.072 39.0975 16.994 38.8815 16.838C38.6655 16.67 38.5575 16.484 38.5575 16.28C38.6415 15.38 38.6835 13.874 38.6835 11.762C38.6835 11.378 38.6535 9.956 38.5935 7.496L38.5395 5.84C38.5395 5.576 38.6595 5.348 38.8995 5.156C39.1395 4.952 39.4095 4.85 39.7095 4.85C39.9735 4.85 40.1655 4.91 40.2855 5.03C40.4055 5.15 40.4655 5.336 40.4655 5.588Z" fill="#3BB4C1"/>
<path d="M55.101 11.222C55.197 11.39 55.275 11.636 55.335 11.96C55.395 12.272 55.425 12.554 55.425 12.806C55.425 13.274 55.323 13.94 55.119 14.804C54.291 16.316 53.067 17.072 51.447 17.072C50.847 17.072 50.235 16.874 49.611 16.478C48.987 16.082 48.555 15.626 48.315 15.11C47.991 14.078 47.829 13.424 47.829 13.148C47.829 12.668 47.931 12.158 48.135 11.618C48.351 11.078 48.621 10.61 48.945 10.214C49.149 9.938 49.515 9.704 50.043 9.512C50.571 9.308 51.051 9.206 51.483 9.206C52.323 9.206 53.037 9.368 53.625 9.692C54.213 10.004 54.705 10.514 55.101 11.222ZM53.535 14.12C53.595 13.964 53.625 13.562 53.625 12.914C53.625 12.566 53.559 12.224 53.427 11.888C53.307 11.552 53.127 11.264 52.887 11.024C52.863 11 52.797 10.964 52.689 10.916C52.581 10.856 52.431 10.802 52.239 10.754C52.059 10.694 51.849 10.664 51.609 10.664C50.937 10.664 50.445 10.934 50.133 11.474C49.821 12.014 49.665 12.626 49.665 13.31C49.665 13.43 49.695 13.658 49.755 13.994C49.827 14.33 49.887 14.54 49.935 14.624C49.971 14.708 50.061 14.828 50.205 14.984C50.361 15.128 50.547 15.26 50.763 15.38C50.991 15.488 51.225 15.542 51.465 15.542C52.005 15.542 52.437 15.416 52.761 15.164C53.085 14.9 53.343 14.552 53.535 14.12ZM57.616 13.76C57.616 13.088 57.622 12.578 57.634 12.23L57.652 10.52C57.652 9.824 57.634 9.062 57.598 8.234C57.586 7.982 57.544 7.634 57.472 7.19C57.376 6.518 57.328 6.014 57.328 5.678C57.328 5.126 57.604 4.85 58.156 4.85C58.504 4.85 58.75 4.946 58.894 5.138C59.05 5.318 59.158 5.606 59.218 6.002C59.338 6.83 59.398 7.802 59.398 8.918C59.398 9.254 59.386 9.758 59.362 10.43C59.59 10.07 59.884 9.788 60.244 9.584C60.616 9.38 60.982 9.278 61.342 9.278C62.386 9.278 63.286 9.71 64.042 10.574C64.246 10.874 64.426 11.234 64.582 11.654C64.75 12.062 64.834 12.416 64.834 12.716C64.834 13.244 64.774 13.73 64.654 14.174C64.546 14.618 64.348 15.05 64.06 15.47C63.772 15.89 63.406 16.232 62.962 16.496C62.53 16.76 62.026 16.892 61.45 16.892C60.946 16.892 60.49 16.79 60.082 16.586C59.686 16.382 59.368 16.112 59.128 15.776C59.068 16.076 58.936 16.376 58.732 16.676C58.528 16.964 58.294 17.108 58.03 17.108C57.814 17.108 57.634 17.054 57.49 16.946C57.346 16.826 57.274 16.652 57.274 16.424C57.274 16.256 57.31 16.046 57.382 15.794C57.454 15.446 57.508 15.128 57.544 14.84C57.592 14.54 57.616 14.18 57.616 13.76ZM61 15.398C61.588 15.398 62.08 15.194 62.476 14.786C62.872 14.366 63.07 13.802 63.07 13.094C63.07 12.446 62.896 11.888 62.548 11.42C62.428 11.264 62.254 11.138 62.026 11.042C61.81 10.946 61.594 10.898 61.378 10.898C60.874 10.898 60.448 11.048 60.1 11.348C59.752 11.636 59.554 12.038 59.506 12.554C59.458 13.25 59.434 13.85 59.434 14.354C59.578 14.63 59.794 14.876 60.082 15.092C60.382 15.296 60.688 15.398 61 15.398ZM66.8955 10.808C66.8955 9.728 66.8775 8.87 66.8415 8.234C66.8175 7.874 66.7935 7.604 66.7695 7.424C66.7095 6.488 66.6795 5.906 66.6795 5.678C66.6795 5.126 66.9555 4.85 67.5075 4.85C67.8555 4.85 68.0895 4.94 68.2095 5.12C68.3415 5.3 68.4315 5.594 68.4795 6.002C68.5995 6.83 68.6595 7.802 68.6595 8.918C68.6595 9.422 68.6415 9.926 68.6055 10.43C68.8215 10.094 69.1635 9.818 69.6315 9.602C70.1115 9.386 70.5495 9.278 70.9455 9.278C71.4855 9.278 71.9355 9.392 72.2955 9.62C72.6675 9.836 73.0335 10.154 73.3935 10.574C73.5975 10.874 73.7775 11.234 73.9335 11.654C74.1015 12.062 74.1855 12.416 74.1855 12.716C74.1855 13.232 74.1015 13.778 73.9335 14.354C73.7775 14.918 73.5675 15.356 73.3035 15.668C72.9675 16.076 72.5835 16.382 72.1515 16.586C71.7315 16.79 71.2275 16.892 70.6395 16.892C69.7275 16.892 69.0075 16.52 68.4795 15.776C68.4195 16.076 68.2875 16.376 68.0835 16.676C67.8795 16.964 67.6455 17.108 67.3815 17.108C67.1655 17.108 66.9855 17.054 66.8415 16.946C66.6975 16.826 66.6255 16.652 66.6255 16.424C66.6255 16.34 66.6495 16.13 66.6975 15.794C66.8175 15.074 66.8775 14.396 66.8775 13.76L66.8955 10.808ZM70.3515 15.398C70.6275 15.398 70.8735 15.362 71.0895 15.29C71.3055 15.206 71.5455 15.074 71.8095 14.894C72.0135 14.774 72.1635 14.546 72.2595 14.21C72.3675 13.874 72.4215 13.502 72.4215 13.094C72.4215 12.47 72.2475 11.912 71.8995 11.42C71.7675 11.276 71.5935 11.156 71.3775 11.06C71.1615 10.964 70.9455 10.916 70.7295 10.916C70.2135 10.916 69.7635 11.06 69.3795 11.348C69.0075 11.636 68.7975 12.038 68.7495 12.554C68.7495 12.71 68.7435 12.836 68.7315 12.932L68.6955 14.354C68.8395 14.63 69.0735 14.876 69.3975 15.092C69.7215 15.296 70.0395 15.398 70.3515 15.398ZM77.9194 20.672C77.4634 20.672 77.0794 20.594 76.7674 20.438C76.4674 20.294 76.2394 20.114 76.0834 19.898C75.9394 19.694 75.8674 19.514 75.8674 19.358C75.8674 19.154 75.9394 18.992 76.0834 18.872C76.2274 18.764 76.4014 18.71 76.6054 18.71C76.7254 18.71 76.8394 18.746 76.9474 18.818C77.0554 18.89 77.1154 18.932 77.1274 18.944C77.2114 19.004 77.2954 19.052 77.3794 19.088C77.4634 19.136 77.5534 19.16 77.6494 19.16C77.9134 19.16 78.1294 18.986 78.2974 18.638C78.4654 18.29 78.6334 17.726 78.8014 16.946C78.2614 16.154 77.8114 15.362 77.4514 14.57L77.0374 13.616C76.9774 13.472 76.8094 13.1 76.5334 12.5C76.2694 11.888 76.0054 11.348 75.7414 10.88C75.5734 10.544 75.4894 10.316 75.4894 10.196C75.4894 9.896 75.5914 9.674 75.7954 9.53C76.0114 9.386 76.2574 9.314 76.5334 9.314C76.7254 9.314 76.8694 9.356 76.9654 9.44C77.0734 9.512 77.1934 9.65 77.3254 9.854C77.6734 10.43 78.0514 11.294 78.4594 12.446C78.6994 13.106 78.8914 13.61 79.0354 13.958C79.1794 14.294 79.3534 14.636 79.5574 14.984C79.7614 14.516 80.0194 13.718 80.3314 12.59C80.5234 11.942 80.6794 11.426 80.7994 11.042C80.9314 10.646 81.0754 10.286 81.2314 9.962C81.3394 9.746 81.4714 9.572 81.6274 9.44C81.7954 9.308 81.9814 9.242 82.1854 9.242C82.3894 9.242 82.6054 9.32 82.8334 9.476C83.0734 9.62 83.1934 9.794 83.1934 9.998C83.1934 10.118 83.1514 10.262 83.0674 10.43C82.5994 11.51 82.1854 12.53 81.8254 13.49C81.4774 14.438 81.1414 15.482 80.8174 16.622C80.6254 17.258 80.4214 17.864 80.2054 18.44C80.0014 19.016 79.8574 19.37 79.7734 19.502C79.5334 19.838 79.2634 20.114 78.9634 20.33C78.6634 20.558 78.3154 20.672 77.9194 20.672Z" fill="#048998"/>
<path d="M68.4417 21.3321C68.4417 21.4521 68.4117 21.7821 68.3517 22.3221C68.2197 23.6421 68.1537 24.9801 68.1537 26.3361C68.1537 27.5241 68.1717 28.4301 68.2077 29.0541C68.2437 29.6781 68.3337 30.1581 68.4777 30.4941C68.6217 30.8181 68.8437 30.9801 69.1437 30.9801C69.7197 30.9801 70.0077 31.1721 70.0077 31.5561C70.0077 31.8081 69.8817 32.0241 69.6297 32.2041C69.3777 32.3721 69.1017 32.4561 68.8017 32.4561C68.4417 32.4561 68.1057 32.3721 67.7937 32.2041C67.4817 32.0361 67.2357 31.7781 67.0557 31.4301C66.8037 31.8021 66.4377 32.1021 65.9577 32.3301C65.4897 32.5461 65.0337 32.6541 64.5897 32.6541C63.9057 32.6541 63.2997 32.5101 62.7717 32.2221C62.2437 31.9341 61.8357 31.5441 61.5477 31.0521C61.2597 30.5481 61.1157 29.9961 61.1157 29.3961C61.1157 28.8201 61.1817 28.2681 61.3137 27.7401C61.4577 27.2001 61.6497 26.7561 61.8897 26.4081C62.2137 25.9521 62.6457 25.5921 63.1857 25.3281C63.7377 25.0521 64.2777 24.9141 64.8057 24.9141C65.1297 24.9141 65.4357 24.9801 65.7237 25.1121C66.0117 25.2321 66.2637 25.3821 66.4797 25.5621C66.4797 24.7581 66.4737 24.2541 66.4617 24.0501V23.6721C66.4617 22.5561 66.5337 21.7401 66.6777 21.2241C66.8097 20.7201 67.1277 20.4681 67.6317 20.4681C67.9077 20.4681 68.1117 20.5281 68.2437 20.6481C68.3757 20.7681 68.4417 20.9961 68.4417 21.3321ZM62.8977 29.3601C62.8977 29.9121 63.0537 30.3561 63.3657 30.6921C63.6897 31.0281 64.0737 31.1961 64.5177 31.1961C65.1537 31.1961 65.6217 30.9981 65.9217 30.6021C66.2337 30.2061 66.3897 29.6961 66.3897 29.0721L66.3717 27.2901C65.9037 26.7741 65.4177 26.5161 64.9137 26.5161C64.5657 26.5161 64.2357 26.6061 63.9237 26.7861C63.6237 26.9541 63.3837 27.2121 63.2037 27.5601C62.9997 27.9561 62.8977 28.5561 62.8977 29.3601Z" fill="#3BB4C1"/>
<path d="M78.3193 26.8221C78.4153 26.9901 78.4933 27.2361 78.5533 27.5601C78.6133 27.8721 78.6433 28.1541 78.6433 28.4061C78.6433 28.8741 78.5413 29.5401 78.3373 30.4041C77.5093 31.9161 76.2853 32.6721 74.6653 32.6721C74.0653 32.6721 73.4533 32.4741 72.8293 32.0781C72.2053 31.6821 71.7733 31.2261 71.5333 30.7101C71.2093 29.6781 71.0473 29.0241 71.0473 28.7481C71.0473 28.2681 71.1493 27.7581 71.3533 27.2181C71.5693 26.6781 71.8393 26.2101 72.1633 25.8141C72.3673 25.5381 72.7333 25.3041 73.2613 25.1121C73.7893 24.9081 74.2693 24.8061 74.7013 24.8061C75.5413 24.8061 76.2553 24.9681 76.8433 25.2921C77.4313 25.6041 77.9233 26.1141 78.3193 26.8221ZM76.7533 29.7201C76.8133 29.5641 76.8433 29.1621 76.8433 28.5141C76.8433 28.1661 76.7773 27.8241 76.6453 27.4881C76.5253 27.1521 76.3453 26.8641 76.1053 26.6241C76.0813 26.6001 76.0153 26.5641 75.9073 26.5161C75.7993 26.4561 75.6493 26.4021 75.4573 26.3541C75.2773 26.2941 75.0673 26.2641 74.8273 26.2641C74.1553 26.2641 73.6633 26.5341 73.3513 27.0741C73.0393 27.6141 72.8833 28.2261 72.8833 28.9101C72.8833 29.0301 72.9133 29.2581 72.9733 29.5941C73.0453 29.9301 73.1053 30.1401 73.1533 30.2241C73.1893 30.3081 73.2793 30.4281 73.4233 30.5841C73.5793 30.7281 73.7653 30.8601 73.9813 30.9801C74.2093 31.0881 74.4433 31.1421 74.6833 31.1421C75.2233 31.1421 75.6553 31.0161 75.9793 30.7641C76.3033 30.5001 76.5613 30.1521 76.7533 29.7201ZM80.8342 29.3601C80.8342 28.6881 80.8402 28.1781 80.8522 27.8301L80.8702 26.1201C80.8702 25.4241 80.8522 24.6621 80.8162 23.8341C80.8042 23.5821 80.7622 23.2341 80.6902 22.7901C80.5942 22.1181 80.5462 21.6141 80.5462 21.2781C80.5462 20.7261 80.8222 20.4501 81.3742 20.4501C81.7222 20.4501 81.9682 20.5461 82.1122 20.7381C82.2682 20.9181 82.3762 21.2061 82.4362 21.6021C82.5562 22.4301 82.6162 23.4021 82.6162 24.5181C82.6162 24.8541 82.6042 25.3581 82.5802 26.0301C82.8082 25.6701 83.1022 25.3881 83.4622 25.1841C83.8342 24.9801 84.2002 24.8781 84.5602 24.8781C85.6042 24.8781 86.5042 25.3101 87.2602 26.1741C87.4642 26.4741 87.6442 26.8341 87.8002 27.2541C87.9682 27.6621 88.0522 28.0161 88.0522 28.3161C88.0522 28.8441 87.9922 29.3301 87.8722 29.7741C87.7642 30.2181 87.5662 30.6501 87.2782 31.0701C86.9902 31.4901 86.6242 31.8321 86.1802 32.0961C85.7482 32.3601 85.2442 32.4921 84.6682 32.4921C84.1642 32.4921 83.7082 32.3901 83.3002 32.1861C82.9042 31.9821 82.5862 31.7121 82.3462 31.3761C82.2862 31.6761 82.1542 31.9761 81.9502 32.2761C81.7462 32.5641 81.5122 32.7081 81.2482 32.7081C81.0322 32.7081 80.8522 32.6541 80.7082 32.5461C80.5642 32.4261 80.4922 32.2521 80.4922 32.0241C80.4922 31.8561 80.5282 31.6461 80.6002 31.3941C80.6722 31.0461 80.7262 30.7281 80.7622 30.4401C80.8102 30.1401 80.8342 29.7801 80.8342 29.3601ZM84.2182 30.9981C84.8062 30.9981 85.2982 30.7941 85.6942 30.3861C86.0902 29.9661 86.2882 29.4021 86.2882 28.6941C86.2882 28.0461 86.1142 27.4881 85.7662 27.0201C85.6462 26.8641 85.4722 26.7381 85.2442 26.6421C85.0282 26.5461 84.8122 26.4981 84.5962 26.4981C84.0922 26.4981 83.6662 26.6481 83.3182 26.9481C82.9702 27.2361 82.7722 27.6381 82.7242 28.1541C82.6762 28.8501 82.6522 29.4501 82.6522 29.9541C82.7962 30.2301 83.0122 30.4761 83.3002 30.6921C83.6002 30.8961 83.9062 30.9981 84.2182 30.9981ZM90.1138 26.4081C90.1138 25.3281 90.0958 24.4701 90.0598 23.8341C90.0358 23.4741 90.0118 23.2041 89.9878 23.0241C89.9278 22.0881 89.8978 21.5061 89.8978 21.2781C89.8978 20.7261 90.1738 20.4501 90.7258 20.4501C91.0738 20.4501 91.3078 20.5401 91.4278 20.7201C91.5598 20.9001 91.6498 21.1941 91.6978 21.6021C91.8178 22.4301 91.8778 23.4021 91.8778 24.5181C91.8778 25.0221 91.8598 25.5261 91.8238 26.0301C92.0398 25.6941 92.3818 25.4181 92.8498 25.2021C93.3298 24.9861 93.7678 24.8781 94.1638 24.8781C94.7038 24.8781 95.1538 24.9921 95.5138 25.2201C95.8858 25.4361 96.2518 25.7541 96.6118 26.1741C96.8158 26.4741 96.9958 26.8341 97.1518 27.2541C97.3198 27.6621 97.4038 28.0161 97.4038 28.3161C97.4038 28.8321 97.3198 29.3781 97.1518 29.9541C96.9958 30.5181 96.7858 30.9561 96.5218 31.2681C96.1858 31.6761 95.8018 31.9821 95.3698 32.1861C94.9498 32.3901 94.4458 32.4921 93.8578 32.4921C92.9458 32.4921 92.2258 32.1201 91.6978 31.3761C91.6378 31.6761 91.5058 31.9761 91.3018 32.2761C91.0978 32.5641 90.8638 32.7081 90.5998 32.7081C90.3838 32.7081 90.2038 32.6541 90.0598 32.5461C89.9158 32.4261 89.8438 32.2521 89.8438 32.0241C89.8438 31.9401 89.8678 31.7301 89.9158 31.3941C90.0358 30.6741 90.0958 29.9961 90.0958 29.3601L90.1138 26.4081ZM93.5698 30.9981C93.8458 30.9981 94.0918 30.9621 94.3078 30.8901C94.5238 30.8061 94.7638 30.6741 95.0278 30.4941C95.2318 30.3741 95.3818 30.1461 95.4778 29.8101C95.5858 29.4741 95.6398 29.1021 95.6398 28.6941C95.6398 28.0701 95.4658 27.5121 95.1178 27.0201C94.9858 26.8761 94.8118 26.7561 94.5958 26.6601C94.3798 26.5641 94.1638 26.5161 93.9478 26.5161C93.4318 26.5161 92.9818 26.6601 92.5978 26.9481C92.2258 27.2361 92.0158 27.6381 91.9678 28.1541C91.9678 28.3101 91.9618 28.4361 91.9498 28.5321L91.9138 29.9541C92.0578 30.2301 92.2918 30.4761 92.6158 30.6921C92.9398 30.8961 93.2578 30.9981 93.5698 30.9981ZM101.138 36.2721C100.682 36.2721 100.298 36.1941 99.9857 36.0381C99.6857 35.8941 99.4577 35.7141 99.3017 35.4981C99.1577 35.2941 99.0857 35.1141 99.0857 34.9581C99.0857 34.7541 99.1577 34.5921 99.3017 34.4721C99.4457 34.3641 99.6197 34.3101 99.8237 34.3101C99.9437 34.3101 100.058 34.3461 100.166 34.4181C100.274 34.4901 100.334 34.5321 100.346 34.5441C100.43 34.6041 100.514 34.6521 100.598 34.6881C100.682 34.7361 100.772 34.7601 100.868 34.7601C101.132 34.7601 101.348 34.5861 101.516 34.2381C101.684 33.8901 101.852 33.3261 102.02 32.5461C101.48 31.7541 101.03 30.9621 100.67 30.1701L100.256 29.2161C100.196 29.0721 100.028 28.7001 99.7517 28.1001C99.4877 27.4881 99.2237 26.9481 98.9597 26.4801C98.7917 26.1441 98.7077 25.9161 98.7077 25.7961C98.7077 25.4961 98.8097 25.2741 99.0137 25.1301C99.2297 24.9861 99.4757 24.9141 99.7517 24.9141C99.9437 24.9141 100.088 24.9561 100.184 25.0401C100.292 25.1121 100.412 25.2501 100.544 25.4541C100.892 26.0301 101.27 26.8941 101.678 28.0461C101.918 28.7061 102.11 29.2101 102.254 29.5581C102.398 29.8941 102.572 30.2361 102.776 30.5841C102.98 30.1161 103.238 29.3181 103.55 28.1901C103.742 27.5421 103.898 27.0261 104.018 26.6421C104.15 26.2461 104.294 25.8861 104.45 25.5621C104.558 25.3461 104.69 25.1721 104.846 25.0401C105.014 24.9081 105.2 24.8421 105.404 24.8421C105.608 24.8421 105.824 24.9201 106.052 25.0761C106.292 25.2201 106.412 25.3941 106.412 25.5981C106.412 25.7181 106.37 25.8621 106.286 26.0301C105.818 27.1101 105.404 28.1301 105.044 29.0901C104.696 30.0381 104.36 31.0821 104.036 32.2221C103.844 32.8581 103.64 33.4641 103.424 34.0401C103.22 34.6161 103.076 34.9701 102.992 35.1021C102.752 35.4381 102.482 35.7141 102.182 35.9301C101.882 36.1581 101.534 36.2721 101.138 36.2721Z" fill="#048998"/>
</svg>
