<svg width="32" height="32" viewBox="0 0 32 32" fill="none" xmlns="http://www.w3.org/2000/svg">
<path d="M17.2723 1.05996C17.0023 1.29996 14.9023 5.46746 14.9023 5.46746L13.3398 11.77L19.4198 11.2125C19.4198 11.2125 24.4773 1.80746 24.5798 1.58996C24.7623 1.19496 24.8598 1.03246 24.1623 1.03246C23.4648 1.02996 17.5248 0.834956 17.2723 1.05996Z" fill="#176CC7"/>
<path d="M20.4202 10.8225C20.1177 10.66 11.2077 10.52 10.9977 10.8225C10.8077 11.0975 10.9152 12.54 10.9877 12.7125C11.1177 13.0124 13.9802 14.175 13.9802 14.175V14.8975C13.9802 14.8975 14.1752 14.9775 15.8452 14.9775C17.5152 14.9775 17.8477 14.8925 17.8477 14.8925L17.8602 14.1975C17.8602 14.1975 20.3452 12.9175 20.4752 12.74C20.5902 12.5925 20.7227 10.985 20.4202 10.8225ZM17.8352 13.1075C17.8352 13.1075 17.8702 12.7625 17.6977 12.6775C17.5252 12.59 14.5427 12.605 14.3077 12.6175C14.0727 12.63 14.0727 13.05 14.0727 13.05L12.2052 12.0625L12.1727 11.7325L19.1577 11.77L19.1727 12.215L17.8352 13.1075Z" fill="#FCC11A"/>
<path d="M14.7602 12.96C14.5252 12.96 14.3477 13.225 14.3477 13.645C14.3477 14.04 14.4827 14.365 14.7802 14.3475C15.0627 14.3325 15.1977 13.975 15.1777 13.64C15.1527 13.2475 15.0577 12.96 14.7602 12.96Z" fill="#FDFFFF"/>
<path d="M7.32764 23.0225C7.32764 29.0125 12.7551 31.505 16.3576 31.3975C20.5551 31.2725 25.0701 28.0875 24.6976 22.3725C24.3476 17.01 19.7751 14.45 15.8301 14.48C11.2451 14.5125 7.32764 17.79 7.32764 23.0225Z" fill="#F8932A"/>
<path d="M16.1301 30.3225C16.0676 30.3225 16.0026 30.3225 15.9401 30.32C14.0651 30.2575 12.1601 29.55 10.8051 28.2375C9.3551 26.8325 8.4601 25.055 8.4551 23.0125C8.4426 17.6475 13.0401 15.675 15.9976 15.675H16.0226C20.0301 15.6925 23.4926 18.6875 23.5826 22.91C23.6226 24.79 22.8526 26.78 21.3426 28.265C19.9351 29.6475 17.8576 30.3225 16.1301 30.3225Z" fill="#FCC11A"/>
<path d="M6.37755 0.930104C6.22005 1.0751 12.2425 11.8001 12.2425 11.8001C12.2425 11.8001 13.2525 11.9301 15.5075 11.9501C17.7625 11.9701 18.88 11.8201 18.88 11.8201C18.88 11.8201 14.1975 1.0376 13.9175 0.930104C13.78 0.875104 11.925 0.855104 10.1125 0.835104C8.29755 0.812604 6.52755 0.790104 6.37755 0.930104Z" fill="#2E9DF4"/>
<path d="M13.0727 16.8375C12.7077 16.525 10.8502 17.4675 9.5452 19.625C8.6702 21.0725 8.5952 22.925 9.1527 22.955C9.7102 22.985 9.7027 21.1525 10.9152 19.55C12.3802 17.6225 13.6002 17.29 13.0727 16.8375Z" fill="#FEFFFA"/>
<path d="M16.0924 16.7251C15.6049 16.7251 14.8449 19.9476 14.2474 20.3451C13.6499 20.7426 10.5549 20.3626 10.5199 20.7976C10.4849 21.2326 12.8174 23.0426 13.0899 23.7101C13.3624 24.3776 11.9124 27.3651 12.3124 27.6551C12.7099 27.9451 15.2074 25.8626 16.0399 25.8626C16.9074 25.8626 19.1424 28.0851 19.5149 27.7801C19.9074 27.4601 18.6474 24.5401 18.8449 23.8701C19.0449 23.2001 21.7574 21.7701 21.6499 21.1201C21.5424 20.4676 18.3924 20.9576 17.8124 20.4151C17.2324 19.8726 16.6174 16.7251 16.0924 16.7251Z" fill="#F8932A"/>
</svg>
