<svg width="30" height="30" viewBox="0 0 30 30" fill="none" xmlns="http://www.w3.org/2000/svg">
<path id="Vector" d="M28.5789 6.73656C28.0303 7.30315 27.4977 7.85308 27.4816 8.403C27.4332 8.93626 27.9819 9.48618 28.4982 10.0028C29.2728 10.836 30.0313 11.5859 29.999 12.4024C29.9667 13.219 29.1437 14.0689 28.3207 14.9021L21.6561 21.8011L19.3646 19.4348L26.2229 12.3691L24.6737 10.7693L22.3823 13.119L16.3308 6.86988L22.5275 0.487432C23.1568 -0.162477 24.2058 -0.162477 24.8028 0.487432L28.5789 4.38689C29.2083 5.00347 29.2083 6.08665 28.5789 6.73656ZM0 23.7509L15.4271 7.80308L21.4786 14.0522L6.05144 30H0V23.7509Z" fill="#F6F5F5"/>
</svg>
