<svg width="1200" height="630" viewBox="0 0 37 38" fill="none" xmlns="http://www.w3.org/2000/svg">
<rect x="0.25" y="0.25" width="35.8333" height="37.2" rx="1.75" stroke="#048998" stroke-width="0.5"/>
<path d="M9.05542 5.97204C9.05542 5.97204 6.72782 6.23423 5.50914 5.08524C4.29046 3.93539 4.56826 1.73937 4.56826 1.73937C4.56826 1.73937 6.89586 1.47718 8.1153 2.62617C9.33398 3.77602 9.05542 5.97204 9.05542 5.97204Z" stroke="#3BB4C1" stroke-linecap="round" stroke-linejoin="round"/>
<path d="M14.3815 11.9955C14.5823 11.9955 14.7748 11.9052 14.9168 11.7445C15.0587 11.5838 15.1385 11.3659 15.1385 11.1386V9.42501C15.1385 9.19777 15.0587 8.97983 14.9168 8.81915C14.7748 8.65846 14.5823 8.56819 14.3815 8.56819H3.78429C3.58353 8.56819 3.391 8.65846 3.24905 8.81915C3.10709 8.97983 3.02734 9.19777 3.02734 9.42501V11.1386C3.02734 11.3659 3.10709 11.5838 3.24905 11.7445C3.391 11.9052 3.58353 11.9955 3.78429 11.9955M14.3815 11.9955H3.78429M14.3815 11.9955L12.8676 18.85H5.29818L3.78429 11.9955M9.11015 5.97204C9.11015 5.97204 11.4378 6.23423 12.6564 5.08524C13.8751 3.93539 13.5973 1.73937 13.5973 1.73937C13.5973 1.73937 11.2697 1.47718 10.051 2.62617C8.83235 3.77602 9.11015 5.97204 9.11015 5.97204Z" stroke="#048998" stroke-linecap="round" stroke-linejoin="round"/>
<path fill-rule="evenodd" clip-rule="evenodd" d="M13.6359 20.7585C14.2257 20.7585 14.7135 21.1716 15.0706 21.6056C15.4424 22.0558 15.7833 22.6611 16.0863 23.3282C16.6946 24.6664 17.2241 26.4147 17.5742 28.1421C17.9221 29.8562 18.1145 31.6464 17.9916 33.0541C17.8679 34.4674 17.2766 35.9864 15.9548 35.9864C14.8139 35.9864 13.9049 35.263 13.1613 34.5292L12.89 34.2542L12.5097 33.8592L12.1665 33.509C11.3789 32.7238 10.6793 32.1794 9.7711 32.1794C8.86286 32.1794 8.16332 32.7238 7.37567 33.509L7.03247 33.8592L6.65217 34.2542L6.38163 34.5292C5.63649 35.263 4.72748 35.9864 3.58735 35.9864C2.2648 35.9864 1.67348 34.4674 1.55057 33.0541C1.42845 31.6455 1.62014 29.8562 1.96798 28.1421C2.31813 26.4147 2.84762 24.6664 3.45594 23.3273C3.75895 22.6611 4.09983 22.0558 4.47162 21.6046C4.82874 21.1716 5.31648 20.7585 5.90625 20.7585C6.30433 20.7585 6.69314 20.8756 7.07576 21.0155L7.53335 21.1878C7.60962 21.217 7.68563 21.2446 7.76138 21.2706C8.43 21.5066 9.11407 21.7103 9.7711 21.7103C10.4281 21.7103 11.1122 21.5066 11.7808 21.2706L12.4649 21.0165C12.8498 20.8766 13.2417 20.7585 13.6359 20.7585ZM13.6359 22.662C13.3399 22.662 13.0307 22.7724 12.7308 22.8933L12.3768 23.037L12.2059 23.1017C11.5219 23.3416 10.66 23.6138 9.7711 23.6138C8.88218 23.6138 8.02032 23.3416 7.33625 23.1017L7.16619 23.037L6.8114 22.8933C6.51149 22.7715 6.2023 22.662 5.90625 22.662C5.58315 22.7363 5.29329 23.2188 5.07454 23.6661L4.95241 23.9278L4.80555 24.2571C4.27838 25.4164 3.79296 26.9981 3.46831 28.6037C3.16299 30.1037 3.01458 31.5408 3.071 32.6105L3.0911 32.8894L3.10656 33.0569L3.12975 33.2549C3.18308 33.6365 3.29826 34.0829 3.58735 34.0829C4.215 34.0829 4.73907 33.6984 5.39068 33.0607L5.70219 32.7485L6.28965 32.1432L6.55555 31.8768C7.37799 31.0744 8.40681 30.2759 9.7711 30.2759C11.1354 30.2759 12.1642 31.0754 12.9866 31.8768L13.2533 32.1432L13.8408 32.7485L14.1515 33.0607C14.8031 33.6984 15.3264 34.0829 15.9548 34.0829C16.2177 34.0829 16.3367 33.7146 16.3962 33.3605L16.4256 33.153L16.4542 32.8513C16.5493 31.7606 16.4024 30.2198 16.0747 28.6037C15.7763 27.1323 15.3434 25.68 14.8673 24.555L14.5898 23.9269L14.4677 23.6671C14.2489 23.2188 13.959 22.7363 13.6359 22.662ZM7.06571 24.5655C7.57822 24.5655 8.06974 24.8162 8.43214 25.2624C8.79454 25.7086 8.99813 26.3138 8.99813 26.9448C8.99813 27.5759 8.79454 28.1811 8.43214 28.6273C8.06974 29.0735 7.57822 29.3242 7.06571 29.3242C6.5532 29.3242 6.06168 29.0735 5.69928 28.6273C5.33688 28.1811 5.13329 27.5759 5.13329 26.9448C5.13329 26.3138 5.33688 25.7086 5.69928 25.2624C6.06168 24.8162 6.5532 24.5655 7.06571 24.5655ZM12.4765 24.5655C12.6658 24.5655 12.8485 24.6511 12.99 24.806C13.1315 24.9609 13.2219 25.1744 13.244 25.4059L13.2495 25.5172V25.9931H13.6359C13.833 25.9934 14.0225 26.0863 14.1657 26.2528C14.309 26.4193 14.3952 26.6469 14.4067 26.8891C14.4183 27.1312 14.3543 27.3697 14.2278 27.5557C14.1014 27.7417 13.922 27.8613 13.7264 27.8899L13.6359 27.8966H13.2495V28.3725C13.2492 28.615 13.1738 28.8484 13.0386 29.0247C12.9033 29.2011 12.7185 29.3073 12.5218 29.3215C12.3251 29.3357 12.1315 29.2569 11.9804 29.1012C11.8293 28.9455 11.7322 28.7247 11.7089 28.4838L11.7035 28.3725V27.8966H11.317C11.12 27.8963 10.9305 27.8034 10.7873 27.6369C10.644 27.4704 10.5578 27.2428 10.5463 27.0006C10.5347 26.7585 10.5987 26.52 10.7251 26.334C10.8516 26.148 11.031 26.0284 11.2266 25.9998L11.317 25.9931H11.7035V25.5172C11.7035 25.2648 11.785 25.0227 11.9299 24.8443C12.0749 24.6658 12.2715 24.5655 12.4765 24.5655ZM7.06571 26.469C6.96321 26.469 6.8649 26.5191 6.79242 26.6084C6.71994 26.6976 6.67922 26.8186 6.67922 26.9448C6.67922 27.0711 6.71994 27.1921 6.79242 27.2813C6.8649 27.3706 6.96321 27.4207 7.06571 27.4207C7.16821 27.4207 7.26651 27.3706 7.33899 27.2813C7.41147 27.1921 7.45219 27.0711 7.45219 26.9448C7.45219 26.8186 7.41147 26.6976 7.33899 26.6084C7.26651 26.5191 7.16821 26.469 7.06571 26.469Z" fill="#048998"/>
<path d="M29.348 1.71362H31.1647V15.4227H29.348V9.25362H22.0813V15.4227H20.2647V8.56817V1.71362H22.0813V7.88271H29.348V1.71362ZM17.5397 7.88271V3.76999H19.3563V13.3663H17.5397V9.25362H16.6313V7.88271H17.5397ZM34.798 9.25362H33.8897V13.3663H32.073V3.76999H33.8897V7.88271H34.798V9.25362Z" fill="#048998"/>
<path d="M29.348 1.71362H31.1647V15.4227H29.348V9.25362H22.0813V15.4227H20.2647V8.56817V1.71362H22.0813V7.88271H29.348V1.71362ZM17.5397 7.88271V3.76999H19.3563V13.3663H17.5397V9.25362H16.6313V7.88271H17.5397ZM34.798 9.25362H33.8897V13.3663H32.073V3.76999H33.8897V7.88271H34.798V9.25362Z" stroke="#048998"/>
<path d="M23.1388 16.9871H31.006C31.5745 16.9871 32.1447 17.0925 32.5428 17.5605C32.9348 18.0228 33.009 18.663 33.009 19.2597V30.671C33.009 31.1961 32.9476 31.7125 32.7107 32.1303C32.574 32.3713 32.3826 32.566 32.1567 32.6941V33.5722C32.1567 34.2163 32.0646 34.8632 31.6529 35.3148C31.2455 35.7616 30.6812 35.8448 30.1553 35.8448H21.0761C20.7371 35.8448 20.4119 35.692 20.1721 35.4199C19.9323 35.1479 19.7976 34.7789 19.7976 34.3942V20.63C19.7951 20.1484 19.7925 19.5469 19.9084 18.9986C20.0508 18.3293 20.3789 17.6804 21.077 17.2772C21.3651 17.1108 21.6685 17.0451 21.9924 17.0161C22.3035 16.9871 22.6828 16.9871 23.1388 16.9871ZM21.0761 34.3942H30.1553C30.6216 34.3942 30.7375 34.3014 30.7639 34.2724C30.7852 34.2491 30.8781 34.1225 30.8781 33.5722V32.9436H22.3547C22.0156 32.9436 21.6904 33.0964 21.4506 33.3685C21.2108 33.6405 21.0761 34.0095 21.0761 34.3942Z" fill="#048998"/>
</svg>
