<svg width="53" height="53" viewBox="0 0 53 53" fill="none" xmlns="http://www.w3.org/2000/svg">
<g id="fe:music">
<path id="Vector" fill-rule="evenodd" clip-rule="evenodd" d="M44.1668 8.83342V37.5418C44.1661 38.9479 43.7179 40.3174 42.8872 41.452C42.0565 42.5866 40.8864 43.4274 39.5461 43.8528C38.2058 44.2782 36.7649 44.2662 35.432 43.8183C34.099 43.3705 32.9431 42.5102 32.1315 41.3618C31.32 40.2134 30.8949 38.8367 30.9177 37.4307C30.9405 36.0247 31.4102 34.6624 32.2586 33.541C33.107 32.4196 34.2903 31.5973 35.6371 31.193C36.9839 30.7887 38.4244 30.8234 39.7502 31.2922V13.2501H22.0835V41.9584C22.0828 43.3646 21.6346 44.7341 20.8039 45.8687C19.9732 47.0032 18.803 47.8441 17.4628 48.2695C16.1225 48.6949 14.6816 48.6828 13.3486 48.235C12.0157 47.7872 10.8598 46.9268 10.0482 45.7785C9.23665 44.6301 8.81153 43.2533 8.83437 41.8473C8.85721 40.4413 9.32683 39.0791 10.1753 37.9577C11.0237 36.8363 12.2069 36.014 13.5537 35.6097C14.9006 35.2054 16.3411 35.2401 17.6668 35.7088V8.83342C17.6668 7.66204 18.1322 6.53865 18.9604 5.71036C19.7887 4.88207 20.9121 4.41675 22.0835 4.41675H39.7502C40.9215 4.41675 42.0449 4.88207 42.8732 5.71036C43.7015 6.53865 44.1668 7.66204 44.1668 8.83342Z" fill="black"/>
</g>
</svg>
