<svg width="31" height="31" viewBox="0 0 31 31" fill="none" xmlns="http://www.w3.org/2000/svg">
<path id="Vector" d="M28.4253 30.3849L17.9865 19.9461C17.158 20.6089 16.2053 21.1336 15.1283 21.5202C14.0512 21.9068 12.9052 22.1001 11.6901 22.1001C8.67996 22.1001 6.13268 21.0574 4.04824 18.9718C1.9638 16.8863 0.921027 14.339 0.919923 11.33C0.918818 8.32096 1.96159 5.77368 4.04824 3.68813C6.13489 1.60259 8.68217 0.559814 11.6901 0.559814C14.698 0.559814 17.2458 1.60259 19.3336 3.68813C21.4213 5.77368 22.4636 8.32096 22.4603 11.33C22.4603 12.5451 22.2669 13.6911 21.8803 14.7681C21.4937 15.8452 20.969 16.7979 20.3062 17.6264L30.745 28.0652L28.4253 30.3849ZM11.6901 18.7862C13.7613 18.7862 15.5221 18.0616 16.9724 16.6123C18.4228 15.1631 19.1475 13.4023 19.1464 11.33C19.1453 9.25769 18.4206 7.49746 16.9724 6.04929C15.5243 4.60111 13.7635 3.87592 11.6901 3.87371C9.61669 3.8715 7.85646 4.59669 6.40939 6.04929C4.96232 7.50188 4.23713 9.26211 4.23382 11.33C4.23051 13.3979 4.9557 15.1586 6.40939 16.6123C7.86309 18.066 9.62332 18.7907 11.6901 18.7862Z" fill="#F6F5F5"/>
</svg>
