<svg width="56" height="56" viewBox="0 0 56 56" fill="none" xmlns="http://www.w3.org/2000/svg">
<path d="M28.0002 11.0835C29.6102 11.0835 30.9168 12.3902 30.9168 14.0002V25.0835H42.0002C42.7737 25.0835 43.5156 25.3908 44.0626 25.9378C44.6095 26.4847 44.9168 27.2266 44.9168 28.0002C44.9168 28.7737 44.6095 29.5156 44.0626 30.0626C43.5156 30.6095 42.7737 30.9168 42.0002 30.9168H30.9168V42.0002C30.9168 42.7737 30.6095 43.5156 30.0626 44.0626C29.5156 44.6095 28.7737 44.9168 28.0002 44.9168C27.2266 44.9168 26.4847 44.6095 25.9378 44.0626C25.3908 43.5156 25.0835 42.7737 25.0835 42.0002V30.9168H14.0002C13.2266 30.9168 12.4847 30.6095 11.9378 30.0626C11.3908 29.5156 11.0835 28.7737 11.0835 28.0002C11.0835 27.2266 11.3908 26.4847 11.9378 25.9378C12.4847 25.3908 13.2266 25.0835 14.0002 25.0835H25.0835V14.0002C25.0835 12.3902 26.3902 11.0835 28.0002 11.0835Z" fill="#1A1717"/>
</svg>
