<svg width="32" height="32" viewBox="0 0 32 32" fill="none" xmlns="http://www.w3.org/2000/svg">
<path d="M4.80029 11.2H27.2003V28C27.2003 28.2121 27.116 28.4156 26.966 28.5656C26.816 28.7157 26.6125 28.8 26.4003 28.8H5.60029C5.38812 28.8 5.18464 28.7157 5.03461 28.5656C4.88458 28.4156 4.80029 28.2121 4.80029 28V11.2Z" fill="url(#paint0_linear_35_2242)"/>
<path d="M8 18.3999C8 18.1877 8.08429 17.9842 8.23431 17.8342C8.38434 17.6841 8.58783 17.5999 8.8 17.5999H15.2C15.4122 17.5999 15.6157 17.6841 15.7657 17.8342C15.9157 17.9842 16 18.1877 16 18.3999V27.9999C16 28.212 15.9157 28.4155 15.7657 28.5655C15.6157 28.7156 15.4122 28.7999 15.2 28.7999H8.8C8.58783 28.7999 8.38434 28.7156 8.23431 28.5655C8.08429 28.4155 8 28.212 8 27.9999V18.3999Z" fill="url(#paint1_linear_35_2242)" fill-opacity="0.8"/>
<path d="M17.6001 18.3999C17.6001 18.1877 17.6844 17.9842 17.8344 17.8342C17.9844 17.6841 18.1879 17.5999 18.4001 17.5999H23.2001C23.4123 17.5999 23.6158 17.6841 23.7658 17.8342C23.9158 17.9842 24.0001 18.1877 24.0001 18.3999V23.1999C24.0001 23.412 23.9158 23.6155 23.7658 23.7655C23.6158 23.9156 23.4123 23.9999 23.2001 23.9999H18.4001C18.1879 23.9999 17.9844 23.9156 17.8344 23.7655C17.6844 23.6155 17.6001 23.412 17.6001 23.1999V18.3999Z" fill="url(#paint2_linear_35_2242)" fill-opacity="0.8"/>
<path d="M7.3602 3.48795L3.405 8.23355C3.27224 8.39239 3.19972 8.59294 3.2002 8.79995V11.2C3.2002 12.473 3.70591 13.6939 4.60609 14.5941C5.50626 15.4942 6.72716 16 8.0002 16C9.27324 16 10.4941 15.4942 11.3943 14.5941C12.2945 13.6939 12.8002 12.473 12.8002 11.2V8.79995H12.0002L13.6002 3.19995H7.9746C7.85734 3.2 7.74152 3.22582 7.63535 3.27558C7.52918 3.32535 7.43524 3.39785 7.3602 3.48795Z" fill="url(#paint3_linear_35_2242)"/>
<path d="M18.4004 3.19995L20.0004 8.79995H19.2004V11.2C19.2004 12.473 19.7061 13.6939 20.6063 14.5941C21.5065 15.4942 22.7274 16 24.0004 16C25.2734 16 26.4943 15.4942 27.3945 14.5941C28.2947 13.6939 28.8004 12.473 28.8004 11.2V8.79995C28.8009 8.59294 28.7284 8.39239 28.5956 8.23355L24.6404 3.48795C24.5653 3.39785 24.4714 3.32535 24.3652 3.27558C24.2591 3.22582 24.1432 3.2 24.026 3.19995H18.4004Z" fill="url(#paint4_linear_35_2242)"/>
<path d="M12.9442 3.19995L11.2002 8.79995V11.6C11.2002 14.0304 13.349 16 16.0002 16C18.6514 16 20.8002 14.0304 20.8002 11.6V8.79995L19.0562 3.19995H12.9442Z" fill="url(#paint5_linear_35_2242)"/>
<defs>
<linearGradient id="paint0_linear_35_2242" x1="10.4003" y1="12.8" x2="13.6003" y2="29.6" gradientUnits="userSpaceOnUse">
<stop offset="0.312" stop-color="#29C3FF"/>
<stop offset="1" stop-color="#0094F0"/>
</linearGradient>
<linearGradient id="paint1_linear_35_2242" x1="8.2864" y1="19.7007" x2="15.6896" y2="25.1935" gradientUnits="userSpaceOnUse">
<stop stop-color="#0067BF"/>
<stop offset="1" stop-color="#003580"/>
</linearGradient>
<linearGradient id="paint2_linear_35_2242" x1="19.5201" y1="16.8895" x2="21.8577" y2="25.3055" gradientUnits="userSpaceOnUse">
<stop stop-color="#FDFDFD"/>
<stop offset="1" stop-color="#B3E0FF"/>
</linearGradient>
<linearGradient id="paint3_linear_35_2242" x1="8.0002" y1="3.19995" x2="8.0002" y2="8.79995" gradientUnits="userSpaceOnUse">
<stop stop-color="#FB6F7B"/>
<stop offset="1" stop-color="#D7257D"/>
</linearGradient>
<linearGradient id="paint4_linear_35_2242" x1="23.2004" y1="3.19995" x2="23.2004" y2="8.79995" gradientUnits="userSpaceOnUse">
<stop stop-color="#FB6F7B"/>
<stop offset="1" stop-color="#D7257D"/>
</linearGradient>
<linearGradient id="paint5_linear_35_2242" x1="16.0002" y1="3.19995" x2="16.0002" y2="8.79995" gradientUnits="userSpaceOnUse">
<stop offset="0.304" stop-color="#FF9FB2"/>
<stop offset="1" stop-color="#F97DBD"/>
</linearGradient>
</defs>
</svg>
