<svg width="53" height="53" viewBox="0 0 53 53" fill="none" xmlns="http://www.w3.org/2000/svg">
<g id="material-symbols:travel">
<path id="Vector" d="M21.9179 46.651L16.4523 36.4926L6.29395 31.027L10.2137 27.1624L18.2189 28.5426L23.8502 22.9114L6.34915 15.4583L10.9867 10.7103L32.2419 14.4645L39.0877 7.61867C39.9342 6.77214 40.9832 6.34888 42.2346 6.34888C43.486 6.34888 44.5349 6.77214 45.3814 7.61867C46.228 8.4652 46.6512 9.50459 46.6512 10.7368C46.6512 11.9691 46.228 13.0092 45.3814 13.8572L38.4804 20.7583L42.2346 41.9583L37.5419 46.651L30.0335 29.1499L24.4023 34.7812L25.8377 42.7312L21.9179 46.651Z" fill="black"/>
</g>
</svg>
